<svg width="42" height="42" viewBox="0 0 42 42" fill="none" xmlns="http://www.w3.org/2000/svg">
<g clip-path="url(#clip0_28_39400)">
<path d="M40.874 30.6769L35.0993 24.9022C33.0369 22.8398 29.5308 23.6649 28.7058 26.3459C28.0871 28.2022 26.0247 29.2334 24.1686 28.8208C20.0438 27.7896 14.4753 22.4273 13.4441 18.0963C12.8254 16.2401 14.0628 14.1777 15.919 13.559C18.6001 12.7341 19.425 9.22799 17.3626 7.16559L11.5879 1.39087C9.93799 -0.0528145 7.46312 -0.0528145 6.01944 1.39087L2.10088 5.30943C-1.81768 9.43423 2.51336 20.3649 12.2066 30.0582C21.8999 39.7515 32.8306 44.2889 36.9554 40.164L40.874 36.2454C42.3178 34.5955 42.3178 32.1206 40.874 30.6769Z" fill="black"/>
</g>
<defs>
<clipPath id="clip0_28_39400">
<rect width="41.3801" height="41.3801" fill="white" transform="translate(0.620117 0.310059)"/>
</clipPath>
</defs>
</svg>
