<svg width="1440" height="808" viewBox="0 0 1440 808" fill="none" xmlns="http://www.w3.org/2000/svg">
<mask id="mask0_28_39205" style="mask-type:luminance" maskUnits="userSpaceOnUse" x="0" y="0" width="1440" height="808">
<path d="M1440 0H0V808H1440V0Z" fill="white"/>
</mask>
<g mask="url(#mask0_28_39205)">
<path d="M1440 0H0V808H1440V0Z" fill="#1B1B1B"/>
</g>
<mask id="mask1_28_39205" style="mask-type:luminance" maskUnits="userSpaceOnUse" x="0" y="0" width="1440" height="808">
<path d="M1440 0H0V808H1440V0Z" fill="white"/>
</mask>
<g mask="url(#mask1_28_39205)">
<path opacity="0.15" d="M1440 0H0V807.243H1440V0Z" fill="#1B1B1B"/>
</g>
<mask id="mask2_28_39205" style="mask-type:luminance" maskUnits="userSpaceOnUse" x="0" y="0" width="1440" height="808">
<path d="M1440 0H0V808H1440V0Z" fill="white"/>
</mask>
<g mask="url(#mask2_28_39205)">
<path d="M608.075 179.561L590.782 173.697L596.007 154.29L583.101 149.915L577.876 169.321L560.583 163.457L556.683 177.942L573.976 183.805L568.751 203.211L581.658 207.587L586.882 188.181L604.175 194.044L608.075 179.561Z" stroke="#F2CC2E" stroke-opacity="0.1" stroke-width="4" stroke-miterlimit="10"/>
<path d="M353.46 766.126L346.352 747.488L362.96 739.512L357.655 725.602L341.047 733.577L333.941 714.94L321.545 720.893L328.652 739.531L312.044 747.507L317.35 761.418L333.958 753.442L341.065 772.079L353.46 766.126Z" stroke="#6854E4" stroke-opacity="0.1" stroke-width="4" stroke-miterlimit="10"/>
<path d="M1349.3 277.842L1348.95 257.572L1367.01 257.173L1366.74 242.045L1348.68 242.444L1348.33 222.176L1334.85 222.473L1335.2 242.742L1317.14 243.142L1317.41 258.269L1335.47 257.871L1335.82 278.139L1349.3 277.842Z" stroke="#83E8E8" stroke-opacity="0.1" stroke-width="4" stroke-miterlimit="10"/>
<path d="M1213.29 720.752L1190.96 713.181L1197.7 688.125L1181.04 682.476L1174.29 707.532L1151.97 699.961L1146.93 718.662L1169.26 726.231L1162.51 751.288L1179.18 756.938L1185.92 731.882L1208.25 739.453L1213.29 720.752Z" stroke="#D96BE8" stroke-opacity="0.1" stroke-width="4" stroke-miterlimit="10"/>
<path d="M265.64 409.524L248.347 403.661L253.572 384.254L240.666 379.877L235.441 399.284L218.148 393.421L214.248 407.906L231.541 413.769L226.316 433.174L239.224 437.551L244.448 418.144L261.74 424.008L265.64 409.524Z" stroke="#F2CC2E" stroke-opacity="0.1" stroke-width="4" stroke-miterlimit="10"/>
<path d="M1338.63 815.133L1331.52 796.495L1348.13 788.519L1342.83 774.608L1326.22 782.584L1319.11 763.946L1306.72 769.9L1313.82 788.538L1297.22 796.514L1302.52 810.424L1319.13 802.448L1326.24 821.085L1338.63 815.133Z" stroke="#6854E4" stroke-opacity="0.1" stroke-width="4" stroke-miterlimit="10"/>
<path d="M871.271 634.227L870.915 613.959L888.976 613.56L888.711 598.432L870.649 598.832L870.294 578.563L856.813 578.861L857.17 599.129L839.107 599.528L839.374 614.656L857.435 614.258L857.79 634.526L871.271 634.227Z" stroke="#83E8E8" stroke-opacity="0.1" stroke-width="4" stroke-miterlimit="10"/>
<path d="M1253.16 388.062L1230.83 380.491L1237.57 355.437L1220.91 349.786L1214.16 374.842L1191.84 367.271L1186.8 385.971L1209.13 393.542L1202.38 418.598L1219.05 424.249L1225.79 399.193L1248.12 406.764L1253.16 388.062Z" stroke="#D96BE8" stroke-opacity="0.1" stroke-width="4" stroke-miterlimit="10"/>
<path d="M420.757 212.833C433.536 212.833 443.895 201.207 443.895 186.866C443.895 172.525 433.536 160.9 420.757 160.9C407.978 160.9 397.619 172.525 397.619 186.866C397.619 201.207 407.978 212.833 420.757 212.833Z" stroke="#83E8E8" stroke-opacity="0.1" stroke-width="4" stroke-miterlimit="10"/>
<path d="M1157.31 212.833C1170.09 212.833 1180.45 201.207 1180.45 186.866C1180.45 172.525 1170.09 160.9 1157.31 160.9C1144.54 160.9 1134.18 172.525 1134.18 186.866C1134.18 201.207 1144.54 212.833 1157.31 212.833Z" stroke="#D96BE8" stroke-opacity="0.1" stroke-width="4" stroke-miterlimit="10"/>
<path d="M945.212 221.48L931.715 206.333L918.217 221.48L931.715 236.627L945.212 221.48Z" stroke="#F2CC2E" stroke-opacity="0.1" stroke-width="4" stroke-miterlimit="10"/>
<path d="M486.316 619.624L465.106 595.822L443.897 619.624L465.106 643.426L486.316 619.624Z" stroke="#F2CC2E" stroke-opacity="0.1" stroke-width="4" stroke-miterlimit="10"/>
<path d="M135.391 368.625L114.181 344.823L92.9715 368.625L114.181 392.427L135.391 368.625Z" stroke="#6854E4" stroke-opacity="0.1" stroke-width="4" stroke-miterlimit="10"/>
<path d="M767.233 231.642L755.996 184.58L725.297 219.031L767.233 231.642Z" stroke="#D96BE8" stroke-opacity="0.1" stroke-width="4" stroke-miterlimit="10"/>
<path d="M288.529 36.375L245.167 38.7855L268.709 79.7229L288.529 36.375Z" stroke="#F2CC2E" stroke-opacity="0.1" stroke-width="4" stroke-miterlimit="10"/>
<path d="M722.863 725.929L759.106 699.102L720.282 677.294L722.863 725.929Z" stroke="#6854E4" stroke-opacity="0.1" stroke-width="4" stroke-miterlimit="10"/>
<path d="M1299.38 120.058L1335.63 93.2313L1296.8 71.4233L1299.38 120.058Z" stroke="#6854E4" stroke-opacity="0.1" stroke-width="4" stroke-miterlimit="10"/>
<path d="M1013.1 576.235L1044.88 625.217" stroke="#83E8E8" stroke-opacity="0.1" stroke-width="4" stroke-miterlimit="10"/>
<path d="M995.954 590.244L1027.73 639.226" stroke="#83E8E8" stroke-opacity="0.1" stroke-width="4" stroke-miterlimit="10"/>
<path d="M110.163 702.277L70.1108 742.902" stroke="#83E8E8" stroke-opacity="0.1" stroke-width="4" stroke-miterlimit="10"/>
<path d="M95.9423 684.618L55.8887 725.243" stroke="#83E8E8" stroke-opacity="0.1" stroke-width="4" stroke-miterlimit="10"/>
<path d="M202.811 212.838L252.373 188.813" stroke="#D96BE8" stroke-opacity="0.1" stroke-width="4" stroke-miterlimit="10"/>
<path d="M211.222 234.689L260.784 210.663" stroke="#D96BE8" stroke-opacity="0.1" stroke-width="4" stroke-miterlimit="10"/>
<path d="M1120.68 536.348L1141.11 547.121L1161.55 536.348L1181.99 547.121L1202.43 536.348L1222.87 547.121" stroke="#F2CC2E" stroke-opacity="0.1" stroke-width="4" stroke-miterlimit="10"/>
<path d="M1337.91 595.34L1364.38 606.113L1390.85 595.34L1417.33 606.113L1443.81 595.34L1470.28 606.113" stroke="#D96BE8" stroke-opacity="0.1" stroke-width="4" stroke-miterlimit="10"/>
<path d="M1337.91 563.615L1364.38 574.389L1390.85 563.615L1417.33 574.389L1443.81 563.615L1470.28 574.389" stroke="#6854E4" stroke-opacity="0.1" stroke-width="4" stroke-miterlimit="10"/>
<path d="M-39.6084 245.165L-13.1364 255.938L13.3356 245.165L39.81 255.938L66.2868 245.165L92.7648 255.938" stroke="#D96BE8" stroke-opacity="0.1" stroke-width="4" stroke-miterlimit="10"/>
<path d="M-39.6084 213.44L-13.1364 224.213L13.3356 213.44L39.81 224.213L66.2868 213.44L92.7648 224.213" stroke="#6854E4" stroke-opacity="0.1" stroke-width="4" stroke-miterlimit="10"/>
<path d="M172.619 725.874L195.111 723.734L208.008 702.933L230.502 700.793L243.404 679.987L265.91 677.841" stroke="#D96BE8" stroke-opacity="0.1" stroke-width="4" stroke-miterlimit="10"/>
<path d="M826.265 130.822L848.759 128.682L861.654 107.882L884.148 105.742L897.05 84.9356L919.556 82.7891" stroke="#83E8E8" stroke-opacity="0.1" stroke-width="4" stroke-miterlimit="10"/>
<path d="M236.248 583.061L258.742 580.923L271.638 560.121L294.131 557.981L307.034 537.176L329.54 535.028" stroke="#83E8E8" stroke-opacity="0.1" stroke-width="4" stroke-miterlimit="10"/>
<path d="M402.486 31.9066C402.486 33.6775 401.207 35.113 399.629 35.113C398.051 35.113 396.771 33.6775 396.771 31.9066C396.771 30.1357 398.051 28.7002 399.629 28.7002C401.207 28.7002 402.486 30.1357 402.486 31.9066Z" fill="#F2CC2E" fill-opacity="0.1"/>
<path d="M421.407 31.9066C421.407 33.6775 420.128 35.113 418.55 35.113C416.972 35.113 415.693 33.6775 415.693 31.9066C415.693 30.1357 416.972 28.7002 418.55 28.7002C420.128 28.6988 421.407 30.1357 421.407 31.9066Z" fill="#F2CC2E" fill-opacity="0.1"/>
<path d="M440.328 31.9066C440.328 33.6775 439.048 35.113 437.47 35.113C435.892 35.113 434.613 33.6775 434.613 31.9066C434.613 30.1357 435.892 28.7002 437.47 28.7002C439.048 28.6988 440.328 30.1357 440.328 31.9066Z" fill="#F2CC2E" fill-opacity="0.1"/>
<path d="M459.25 31.9066C459.25 33.6775 457.97 35.113 456.392 35.113C454.814 35.113 453.535 33.6775 453.535 31.9066C453.535 30.1357 454.814 28.7002 456.392 28.7002C457.97 28.6988 459.25 30.1357 459.25 31.9066Z" fill="#F2CC2E" fill-opacity="0.1"/>
<path d="M478.171 31.9066C478.171 33.6775 476.892 35.113 475.314 35.113C473.736 35.113 472.457 33.6775 472.457 31.9066C472.457 30.1357 473.736 28.7002 475.314 28.7002C476.891 28.6988 478.171 30.1357 478.171 31.9066Z" fill="#F2CC2E" fill-opacity="0.1"/>
<path d="M497.091 31.9066C497.091 33.6775 495.812 35.113 494.234 35.113C492.656 35.113 491.377 33.6775 491.377 31.9066C491.377 30.1357 492.656 28.7002 494.234 28.7002C495.812 28.6988 497.091 30.1357 497.091 31.9066Z" fill="#F2CC2E" fill-opacity="0.1"/>
<path d="M516.013 31.9066C516.013 33.6775 514.734 35.113 513.156 35.113C511.578 35.113 510.299 33.6775 510.299 31.9066C510.299 30.1357 511.578 28.7002 513.156 28.7002C514.734 28.6988 516.013 30.1357 516.013 31.9066Z" fill="#F2CC2E" fill-opacity="0.1"/>
<path d="M534.934 31.9066C534.934 33.6775 533.654 35.113 532.076 35.113C530.498 35.113 529.219 33.6775 529.219 31.9066C529.219 30.1357 530.498 28.7002 532.076 28.7002C533.654 28.6988 534.934 30.1357 534.934 31.9066Z" fill="#F2CC2E" fill-opacity="0.1"/>
<path d="M553.855 31.9066C553.855 33.6775 552.576 35.113 550.998 35.113C549.42 35.113 548.141 33.6775 548.141 31.9066C548.141 30.1357 549.42 28.7002 550.998 28.7002C552.576 28.6988 553.855 30.1357 553.855 31.9066Z" fill="#F2CC2E" fill-opacity="0.1"/>
<path d="M409.214 51.9221C410.792 51.9221 412.071 50.4865 412.071 48.7157C412.071 46.9448 410.792 45.5093 409.214 45.5093C407.636 45.5093 406.357 46.9448 406.357 48.7157C406.357 50.4865 407.636 51.9221 409.214 51.9221Z" fill="#F2CC2E" fill-opacity="0.1"/>
<path d="M428.136 51.9221C429.714 51.9221 430.993 50.4865 430.993 48.7157C430.993 46.9448 429.714 45.5093 428.136 45.5093C426.558 45.5093 425.279 46.9448 425.279 48.7157C425.279 50.4865 426.558 51.9221 428.136 51.9221Z" fill="#F2CC2E" fill-opacity="0.1"/>
<path d="M449.915 48.7157C449.915 50.4866 448.635 51.9221 447.057 51.9221C445.479 51.9221 444.2 50.4866 444.2 48.7157C444.2 46.9448 445.479 45.5093 447.057 45.5093C448.635 45.5093 449.915 46.9448 449.915 48.7157Z" fill="#F2CC2E" fill-opacity="0.1"/>
<path d="M468.835 48.7157C468.835 50.4866 467.556 51.9221 465.978 51.9221C464.4 51.9221 463.121 50.4866 463.121 48.7157C463.121 46.9448 464.4 45.5093 465.978 45.5093C467.556 45.5093 468.835 46.9448 468.835 48.7157Z" fill="#F2CC2E" fill-opacity="0.1"/>
<path d="M487.757 48.7157C487.757 50.4866 486.478 51.9221 484.9 51.9221C483.322 51.9221 482.042 50.4866 482.042 48.7157C482.042 46.9448 483.322 45.5093 484.9 45.5093C486.478 45.5093 487.757 46.9448 487.757 48.7157Z" fill="#F2CC2E" fill-opacity="0.1"/>
<path d="M503.82 51.9221C505.398 51.9221 506.677 50.4865 506.677 48.7157C506.677 46.9448 505.398 45.5093 503.82 45.5093C502.242 45.5093 500.963 46.9448 500.963 48.7157C500.963 50.4865 502.242 51.9221 503.82 51.9221Z" fill="#F2CC2E" fill-opacity="0.1"/>
<path d="M525.599 48.7157C525.599 50.4866 524.319 51.9221 522.741 51.9221C521.163 51.9221 519.884 50.4866 519.884 48.7157C519.884 46.9448 521.163 45.5093 522.741 45.5093C524.319 45.5093 525.599 46.9448 525.599 48.7157Z" fill="#F2CC2E" fill-opacity="0.1"/>
<path d="M544.52 48.7157C544.52 50.4866 543.241 51.9221 541.663 51.9221C540.085 51.9221 538.806 50.4866 538.806 48.7157C538.806 46.9448 540.085 45.5093 541.663 45.5093C543.241 45.5093 544.52 46.9448 544.52 48.7157Z" fill="#F2CC2E" fill-opacity="0.1"/>
<path d="M563.44 48.7157C563.44 50.4866 562.161 51.9221 560.583 51.9221C559.005 51.9221 557.726 50.4866 557.726 48.7157C557.726 46.9448 559.005 45.5093 560.583 45.5093C562.161 45.5093 563.44 46.9448 563.44 48.7157Z" fill="#F2CC2E" fill-opacity="0.1"/>
<path d="M15.773 575.025C15.773 576.796 14.4938 578.232 12.9158 578.232C11.3378 578.232 10.0586 576.796 10.0586 575.025C10.0586 573.254 11.3378 571.819 12.9158 571.819C14.4938 571.819 15.773 573.254 15.773 575.025Z" fill="#F2CC2E" fill-opacity="0.1"/>
<path d="M34.6944 575.025C34.6944 576.796 33.4152 578.232 31.8372 578.232C30.2592 578.232 28.98 576.796 28.98 575.025C28.98 573.254 30.2592 571.819 31.8372 571.819C33.4152 571.819 34.6944 573.254 34.6944 575.025Z" fill="#F2CC2E" fill-opacity="0.1"/>
<path d="M53.6148 575.025C53.6148 576.796 52.3356 578.232 50.7576 578.232C49.1796 578.232 47.9004 576.796 47.9004 575.025C47.9004 573.254 49.1796 571.819 50.7576 571.819C52.3356 571.819 53.6148 573.254 53.6148 575.025Z" fill="#F2CC2E" fill-opacity="0.1"/>
<path d="M72.5367 575.025C72.5367 576.796 71.2575 578.232 69.6795 578.232C68.1015 578.232 66.8223 576.796 66.8223 575.025C66.8223 573.254 68.1015 571.819 69.6795 571.819C71.2575 571.819 72.5367 573.254 72.5367 575.025Z" fill="#F2CC2E" fill-opacity="0.1"/>
<path d="M91.4571 575.025C91.4571 576.796 90.1779 578.232 88.5999 578.232C87.0219 578.232 85.7427 576.796 85.7427 575.025C85.7427 573.254 87.0219 571.819 88.5999 571.819C90.1779 571.819 91.4571 573.254 91.4571 575.025Z" fill="#F2CC2E" fill-opacity="0.1"/>
<path d="M110.378 575.025C110.378 576.796 109.099 578.232 107.521 578.232C105.943 578.232 104.664 576.796 104.664 575.025C104.664 573.254 105.943 571.819 107.521 571.819C109.099 571.819 110.378 573.254 110.378 575.025Z" fill="#F2CC2E" fill-opacity="0.1"/>
<path d="M6.43803 591.836C6.43803 593.607 5.15883 595.042 3.58083 595.042C2.00283 595.042 0.723633 593.607 0.723633 591.836C0.723633 590.065 2.00283 588.629 3.58083 588.629C5.15883 588.629 6.43803 590.065 6.43803 591.836Z" fill="#F2CC2E" fill-opacity="0.1"/>
<path d="M25.3584 591.836C25.3584 593.607 24.0792 595.042 22.5012 595.042C20.9232 595.042 19.644 593.607 19.644 591.836C19.644 590.065 20.9232 588.629 22.5012 588.629C24.0792 588.629 25.3584 590.065 25.3584 591.836Z" fill="#F2CC2E" fill-opacity="0.1"/>
<path d="M44.2803 591.836C44.2803 593.607 43.0011 595.042 41.4231 595.042C39.8451 595.042 38.5659 593.607 38.5659 591.836C38.5659 590.065 39.8451 588.629 41.4231 588.629C43.0011 588.629 44.2803 590.065 44.2803 591.836Z" fill="#F2CC2E" fill-opacity="0.1"/>
<path d="M63.2017 591.836C63.2017 593.607 61.9225 595.042 60.3445 595.042C58.7665 595.042 57.4873 593.607 57.4873 591.836C57.4873 590.065 58.7665 588.629 60.3445 588.629C61.9225 588.629 63.2017 590.065 63.2017 591.836Z" fill="#F2CC2E" fill-opacity="0.1"/>
<path d="M82.1221 591.836C82.1221 593.607 80.8429 595.042 79.2649 595.042C77.6869 595.042 76.4077 593.607 76.4077 591.836C76.4077 590.065 77.6869 588.629 79.2649 588.629C80.8429 588.629 82.1221 590.065 82.1221 591.836Z" fill="#F2CC2E" fill-opacity="0.1"/>
<path d="M101.044 591.836C101.044 593.607 99.7643 595.042 98.1863 595.042C96.6083 595.042 95.3291 593.607 95.3291 591.836C95.3291 590.065 96.6083 588.629 98.1863 588.629C99.7643 588.629 101.044 590.065 101.044 591.836Z" fill="#F2CC2E" fill-opacity="0.1"/>
<path d="M119.964 591.836C119.964 593.607 118.685 595.042 117.107 595.042C115.529 595.042 114.25 593.607 114.25 591.836C114.25 590.065 115.529 588.629 117.107 588.629C118.685 588.629 119.964 590.065 119.964 591.836Z" fill="#F2CC2E" fill-opacity="0.1"/>
<path d="M1316.43 674.562C1316.43 676.333 1315.15 677.768 1313.58 677.768C1312 677.768 1310.72 676.333 1310.72 674.562C1310.72 672.791 1312 671.355 1313.58 671.355C1315.15 671.355 1316.43 672.791 1316.43 674.562Z" fill="#F2CC2E" fill-opacity="0.1"/>
<path d="M1335.36 674.562C1335.36 676.333 1334.08 677.768 1332.5 677.768C1330.92 677.768 1329.64 676.333 1329.64 674.562C1329.64 672.791 1330.92 671.355 1332.5 671.355C1334.08 671.355 1335.36 672.791 1335.36 674.562Z" fill="#F2CC2E" fill-opacity="0.1"/>
<path d="M1354.28 674.562C1354.28 676.333 1353 677.768 1351.42 677.768C1349.84 677.768 1348.56 676.333 1348.56 674.562C1348.56 672.791 1349.84 671.355 1351.42 671.355C1353 671.355 1354.28 672.791 1354.28 674.562Z" fill="#F2CC2E" fill-opacity="0.1"/>
<path d="M1373.2 674.562C1373.2 676.333 1371.92 677.768 1370.34 677.768C1368.76 677.768 1367.48 676.333 1367.48 674.562C1367.48 672.791 1368.76 671.355 1370.34 671.355C1371.92 671.355 1373.2 672.791 1373.2 674.562Z" fill="#F2CC2E" fill-opacity="0.1"/>
<path d="M1392.12 674.562C1392.12 676.333 1390.84 677.768 1389.26 677.768C1387.68 677.768 1386.4 676.333 1386.4 674.562C1386.4 672.791 1387.68 671.355 1389.26 671.355C1390.84 671.355 1392.12 672.791 1392.12 674.562Z" fill="#F2CC2E" fill-opacity="0.1"/>
<path d="M1411.04 674.562C1411.04 676.333 1409.76 677.768 1408.18 677.768C1406.6 677.768 1405.32 676.333 1405.32 674.562C1405.32 672.791 1406.6 671.355 1408.18 671.355C1409.76 671.355 1411.04 672.791 1411.04 674.562Z" fill="#F2CC2E" fill-opacity="0.1"/>
<path d="M1429.96 674.562C1429.96 676.333 1428.68 677.768 1427.1 677.768C1425.53 677.768 1424.25 676.333 1424.25 674.562C1424.25 672.791 1425.53 671.355 1427.1 671.355C1428.68 671.355 1429.96 672.791 1429.96 674.562Z" fill="#F2CC2E" fill-opacity="0.1"/>
<path d="M1326.02 691.372C1326.02 693.143 1324.74 694.579 1323.16 694.579C1321.59 694.579 1320.31 693.143 1320.31 691.372C1320.31 689.602 1321.59 688.166 1323.16 688.166C1324.74 688.166 1326.02 689.602 1326.02 691.372Z" fill="#F2CC2E" fill-opacity="0.1"/>
<path d="M1344.94 691.372C1344.94 693.143 1343.66 694.579 1342.08 694.579C1340.51 694.579 1339.23 693.143 1339.23 691.372C1339.23 689.602 1340.51 688.166 1342.08 688.166C1343.66 688.166 1344.94 689.602 1344.94 691.372Z" fill="#F2CC2E" fill-opacity="0.1"/>
<path d="M1363.86 691.372C1363.86 693.143 1362.58 694.579 1361.01 694.579C1359.43 694.579 1358.15 693.143 1358.15 691.372C1358.15 689.602 1359.43 688.166 1361.01 688.166C1362.58 688.166 1363.86 689.602 1363.86 691.372Z" fill="#F2CC2E" fill-opacity="0.1"/>
<path d="M1382.78 691.372C1382.78 693.143 1381.51 694.579 1379.93 694.579C1378.35 694.579 1377.07 693.143 1377.07 691.372C1377.07 689.602 1378.35 688.166 1379.93 688.166C1381.5 688.166 1382.78 689.602 1382.78 691.372Z" fill="#F2CC2E" fill-opacity="0.1"/>
<path d="M1401.7 691.372C1401.7 693.143 1400.43 694.579 1398.85 694.579C1397.27 694.579 1395.99 693.143 1395.99 691.372C1395.99 689.602 1397.27 688.166 1398.85 688.166C1400.43 688.166 1401.7 689.602 1401.7 691.372Z" fill="#F2CC2E" fill-opacity="0.1"/>
<path d="M1420.63 691.372C1420.63 693.143 1419.35 694.579 1417.77 694.579C1416.19 694.579 1414.91 693.143 1414.91 691.372C1414.91 689.602 1416.19 688.166 1417.77 688.166C1419.35 688.166 1420.63 689.602 1420.63 691.372Z" fill="#F2CC2E" fill-opacity="0.1"/>
<path d="M1439.55 691.372C1439.55 693.143 1438.27 694.579 1436.69 694.579C1435.11 694.579 1433.83 693.143 1433.83 691.372C1433.83 689.602 1435.11 688.166 1436.69 688.166C1438.27 688.166 1439.55 689.602 1439.55 691.372Z" fill="#F2CC2E" fill-opacity="0.1"/>
<path d="M867.173 722.166C867.173 723.937 865.894 725.373 864.316 725.373C862.738 725.373 861.458 723.937 861.458 722.166C861.458 720.396 862.738 718.96 864.316 718.96C865.894 718.959 867.173 720.396 867.173 722.166Z" fill="#6854E4" fill-opacity="0.1"/>
<path d="M886.094 722.166C886.094 723.937 884.815 725.373 883.237 725.373C881.659 725.373 880.38 723.937 880.38 722.166C880.38 720.396 881.659 718.96 883.237 718.96C884.815 718.96 886.094 720.396 886.094 722.166Z" fill="#6854E4" fill-opacity="0.1"/>
<path d="M905.015 722.166C905.015 723.937 903.735 725.373 902.157 725.373C900.579 725.373 899.3 723.937 899.3 722.166C899.3 720.396 900.579 718.96 902.157 718.96C903.735 718.959 905.015 720.396 905.015 722.166Z" fill="#6854E4" fill-opacity="0.1"/>
<path d="M923.937 722.166C923.937 723.937 922.657 725.373 921.079 725.373C919.501 725.373 918.222 723.937 918.222 722.166C918.222 720.396 919.501 718.96 921.079 718.96C922.657 718.959 923.937 720.396 923.937 722.166Z" fill="#6854E4" fill-opacity="0.1"/>
<path d="M942.857 722.166C942.857 723.937 941.578 725.373 940 725.373C938.422 725.373 937.143 723.937 937.143 722.166C937.143 720.396 938.422 718.96 940 718.96C941.578 718.959 942.857 720.396 942.857 722.166Z" fill="#6854E4" fill-opacity="0.1"/>
<path d="M961.778 722.166C961.778 723.937 960.499 725.373 958.921 725.373C957.343 725.373 956.064 723.937 956.064 722.166C956.064 720.396 957.343 718.96 958.921 718.96C960.499 718.959 961.778 720.396 961.778 722.166Z" fill="#6854E4" fill-opacity="0.1"/>
<path d="M980.7 722.166C980.7 723.937 979.421 725.373 977.843 725.373C976.265 725.373 974.986 723.937 974.986 722.166C974.986 720.396 976.265 718.96 977.843 718.96C979.421 718.96 980.7 720.396 980.7 722.166Z" fill="#6854E4" fill-opacity="0.1"/>
<path d="M999.621 722.166C999.621 723.937 998.341 725.373 996.763 725.373C995.185 725.373 993.906 723.937 993.906 722.166C993.906 720.396 995.185 718.96 996.763 718.96C998.341 718.959 999.621 720.396 999.621 722.166Z" fill="#6854E4" fill-opacity="0.1"/>
<path d="M1018.54 722.166C1018.54 723.937 1017.26 725.373 1015.68 725.373C1014.11 725.373 1012.83 723.937 1012.83 722.166C1012.83 720.396 1014.11 718.96 1015.68 718.96C1017.26 718.959 1018.54 720.396 1018.54 722.166Z" fill="#6854E4" fill-opacity="0.1"/>
<path d="M876.76 738.977C876.76 740.748 875.481 742.183 873.903 742.183C872.325 742.183 871.045 740.748 871.045 738.977C871.045 737.206 872.325 735.771 873.903 735.771C875.479 735.769 876.76 737.206 876.76 738.977Z" fill="#6854E4" fill-opacity="0.1"/>
<path d="M895.68 738.977C895.68 740.748 894.401 742.183 892.823 742.183C891.245 742.183 889.966 740.748 889.966 738.977C889.966 737.206 891.245 735.771 892.823 735.771C894.401 735.769 895.68 737.206 895.68 738.977Z" fill="#6854E4" fill-opacity="0.1"/>
<path d="M914.602 738.977C914.602 740.748 913.322 742.183 911.744 742.183C910.166 742.183 908.887 740.748 908.887 738.977C908.887 737.206 910.166 735.771 911.744 735.771C913.322 735.769 914.602 737.206 914.602 738.977Z" fill="#6854E4" fill-opacity="0.1"/>
<path d="M933.522 738.977C933.522 740.748 932.243 742.183 930.665 742.183C929.087 742.183 927.808 740.748 927.808 738.977C927.808 737.206 929.087 735.771 930.665 735.771C932.243 735.769 933.522 737.206 933.522 738.977Z" fill="#6854E4" fill-opacity="0.1"/>
<path d="M952.444 738.977C952.444 740.748 951.165 742.183 949.587 742.183C948.009 742.183 946.729 740.748 946.729 738.977C946.729 737.206 948.009 735.771 949.587 735.771C951.165 735.769 952.444 737.206 952.444 738.977Z" fill="#6854E4" fill-opacity="0.1"/>
<path d="M971.364 738.977C971.364 740.748 970.085 742.183 968.507 742.183C966.929 742.183 965.65 740.748 965.65 738.977C965.65 737.206 966.929 735.771 968.507 735.771C970.085 735.769 971.364 737.206 971.364 738.977Z" fill="#6854E4" fill-opacity="0.1"/>
<path d="M990.286 738.977C990.286 740.748 989.006 742.183 987.428 742.183C985.85 742.183 984.571 740.748 984.571 738.977C984.571 737.206 985.85 735.771 987.428 735.771C989.006 735.769 990.286 737.206 990.286 738.977Z" fill="#6854E4" fill-opacity="0.1"/>
<path d="M1009.21 738.977C1009.21 740.748 1007.93 742.183 1006.35 742.183C1004.77 742.183 1003.49 740.748 1003.49 738.977C1003.49 737.206 1004.77 735.771 1006.35 735.771C1007.93 735.769 1009.21 737.206 1009.21 738.977Z" fill="#6854E4" fill-opacity="0.1"/>
<path d="M1028.13 738.977C1028.13 740.748 1026.85 742.183 1025.27 742.183C1023.69 742.183 1022.41 740.748 1022.41 738.977C1022.41 737.206 1023.69 735.771 1025.27 735.771C1026.85 735.769 1028.13 737.206 1028.13 738.977Z" fill="#6854E4" fill-opacity="0.1"/>
<path d="M1137.4 51.3807C1137.4 53.1516 1136.12 54.5871 1134.54 54.5871C1132.96 54.5871 1131.68 53.1516 1131.68 51.3807C1131.68 49.6099 1132.96 48.1743 1134.54 48.1743C1136.12 48.173 1137.4 49.6099 1137.4 51.3807Z" fill="#D96BE8" fill-opacity="0.1"/>
<path d="M1156.32 51.3807C1156.32 53.1516 1155.04 54.5871 1153.46 54.5871C1151.88 54.5871 1150.6 53.1516 1150.6 51.3807C1150.6 49.6099 1151.88 48.1743 1153.46 48.1743C1155.04 48.173 1156.32 49.6099 1156.32 51.3807Z" fill="#D96BE8" fill-opacity="0.1"/>
<path d="M1175.24 51.3807C1175.24 53.1516 1173.96 54.5871 1172.38 54.5871C1170.8 54.5871 1169.52 53.1516 1169.52 51.3807C1169.52 49.6099 1170.8 48.1743 1172.38 48.1743C1173.96 48.173 1175.24 49.6099 1175.24 51.3807Z" fill="#D96BE8" fill-opacity="0.1"/>
<path d="M1137.4 67.5446C1137.35 69.3142 1136.02 70.6972 1134.45 70.6339C1132.87 70.5706 1131.64 69.0839 1131.69 67.3144C1131.75 65.5448 1133.08 64.1605 1134.65 64.2238C1136.23 64.2871 1137.46 65.7751 1137.4 67.5446Z" fill="#D96BE8" fill-opacity="0.1"/>
<path d="M1156.31 68.3056C1156.26 70.0751 1154.93 71.4581 1153.36 71.3948C1151.78 71.3316 1150.55 69.8448 1150.6 68.0753C1150.66 66.3058 1151.98 64.9214 1153.56 64.9861C1155.14 65.0494 1156.37 66.5361 1156.31 68.3056Z" fill="#D96BE8" fill-opacity="0.1"/>
<path d="M1175.22 69.0666C1175.17 70.8361 1173.84 72.2192 1172.26 72.1559C1170.69 72.0926 1169.46 70.6059 1169.51 68.8363C1169.57 67.0668 1170.89 65.6824 1172.47 65.7457C1174.05 65.8104 1175.28 67.2971 1175.22 69.0666Z" fill="#D96BE8" fill-opacity="0.1"/>
<path d="M1353.35 365.135C1353.35 366.906 1352.07 368.342 1350.49 368.342C1348.91 368.342 1347.63 366.906 1347.63 365.135C1347.63 363.364 1348.91 361.929 1350.49 361.929C1352.07 361.929 1353.35 363.364 1353.35 365.135Z" fill="#D96BE8" fill-opacity="0.1"/>
<path d="M1372.27 365.135C1372.27 366.906 1370.99 368.342 1369.41 368.342C1367.83 368.342 1366.56 366.906 1366.56 365.135C1366.56 363.364 1367.83 361.929 1369.41 361.929C1370.99 361.929 1372.27 363.364 1372.27 365.135Z" fill="#D96BE8" fill-opacity="0.1"/>
<path d="M1391.19 365.135C1391.19 366.906 1389.91 368.342 1388.33 368.342C1386.76 368.342 1385.48 366.906 1385.48 365.135C1385.48 363.364 1386.76 361.929 1388.33 361.929C1389.91 361.929 1391.19 363.364 1391.19 365.135Z" fill="#D96BE8" fill-opacity="0.1"/>
<path d="M1353.36 381.299C1353.3 383.069 1351.98 384.452 1350.4 384.388C1348.82 384.325 1347.59 382.838 1347.65 381.069C1347.7 379.299 1349.03 377.915 1350.6 377.978C1352.18 378.043 1353.42 379.53 1353.36 381.299Z" fill="#D96BE8" fill-opacity="0.1"/>
<path d="M1372.27 382.06C1372.21 383.829 1370.89 385.212 1369.31 385.149C1367.73 385.086 1366.5 383.599 1366.56 381.829C1366.61 380.06 1367.94 378.676 1369.52 378.739C1371.09 378.804 1372.33 380.29 1372.27 382.06Z" fill="#D96BE8" fill-opacity="0.1"/>
<path d="M1391.18 382.821C1391.12 384.59 1389.8 385.973 1388.22 385.91C1386.64 385.847 1385.41 384.36 1385.47 382.59C1385.52 380.821 1386.85 379.437 1388.42 379.501C1390 379.564 1391.23 381.051 1391.18 382.821Z" fill="#D96BE8" fill-opacity="0.1"/>
<path d="M546.204 738.89C544.626 738.89 543.347 737.455 543.347 735.684C543.347 733.913 544.626 732.478 546.204 732.478C547.782 732.478 549.062 733.913 549.062 735.684C549.062 737.455 547.782 738.89 546.204 738.89Z" fill="#83E8E8" fill-opacity="0.1"/>
<path d="M546.204 760.125C544.626 760.125 543.347 758.689 543.347 756.918C543.347 755.147 544.626 753.712 546.204 753.712C547.782 753.712 549.062 755.147 549.062 756.918C549.062 758.689 547.782 760.125 546.204 760.125Z" fill="#83E8E8" fill-opacity="0.1"/>
<path d="M546.204 781.357C544.626 781.357 543.347 779.922 543.347 778.151C543.347 776.38 544.626 774.944 546.204 774.944C547.782 774.944 549.062 776.38 549.062 778.151C549.062 779.922 547.782 781.357 546.204 781.357Z" fill="#83E8E8" fill-opacity="0.1"/>
<path d="M531.801 738.902C530.224 738.839 528.991 737.352 529.048 735.583C529.104 733.813 530.429 732.429 532.006 732.493C533.583 732.557 534.816 734.043 534.759 735.813C534.702 737.582 533.377 738.965 531.801 738.902Z" fill="#83E8E8" fill-opacity="0.1"/>
<path d="M531.123 760.122C529.546 760.059 528.314 758.572 528.37 756.802C528.426 755.033 529.751 753.65 531.328 753.713C532.905 753.776 534.138 755.263 534.081 757.033C534.024 758.802 532.7 760.185 531.123 760.122Z" fill="#83E8E8" fill-opacity="0.1"/>
<path d="M530.445 781.343C528.868 781.279 527.635 779.793 527.692 778.023C527.748 776.253 529.073 774.87 530.65 774.934C532.227 774.997 533.46 776.484 533.403 778.253C533.346 780.021 532.021 781.406 530.445 781.343Z" fill="#83E8E8" fill-opacity="0.1"/>
<path d="M546.204 676.139C544.626 676.139 543.347 674.704 543.347 672.933C543.347 671.162 544.626 669.727 546.204 669.727C547.782 669.727 549.062 671.162 549.062 672.933C549.062 674.704 547.782 676.139 546.204 676.139Z" fill="#83E8E8" fill-opacity="0.1"/>
<path d="M546.204 697.374C544.626 697.374 543.347 695.938 543.347 694.167C543.347 692.396 544.626 690.961 546.204 690.961C547.782 690.961 549.062 692.396 549.062 694.167C549.062 695.937 547.782 697.374 546.204 697.374Z" fill="#83E8E8" fill-opacity="0.1"/>
<path d="M546.204 718.606C544.626 718.606 543.347 717.171 543.347 715.4C543.347 713.629 544.626 712.193 546.204 712.193C547.782 712.193 549.062 713.629 549.062 715.4C549.062 717.171 547.782 718.606 546.204 718.606Z" fill="#83E8E8" fill-opacity="0.1"/>
<path d="M531.801 676.15C530.224 676.086 528.991 674.6 529.048 672.83C529.104 671.06 530.429 669.676 532.006 669.739C533.583 669.803 534.816 671.289 534.759 673.059C534.702 674.83 533.377 676.214 531.801 676.15Z" fill="#83E8E8" fill-opacity="0.1"/>
<path d="M531.123 697.371C529.546 697.308 528.314 695.821 528.37 694.051C528.426 692.282 529.751 690.897 531.328 690.962C532.905 691.025 534.138 692.512 534.081 694.282C534.024 696.051 532.7 697.434 531.123 697.371Z" fill="#83E8E8" fill-opacity="0.1"/>
<path d="M530.445 718.591C528.868 718.527 527.635 717.041 527.692 715.271C527.748 713.502 529.073 712.118 530.65 712.182C532.227 712.245 533.46 713.732 533.403 715.501C533.346 717.271 532.021 718.654 530.445 718.591Z" fill="#83E8E8" fill-opacity="0.1"/>
</g>
</svg>
