<svg width="47" height="47" viewBox="0 0 47 47" fill="none" xmlns="http://www.w3.org/2000/svg">
<mask id="mask0_28_39454" style="mask-type:alpha" maskUnits="userSpaceOnUse" x="0" y="0" width="47" height="47">
<rect x="0.5" y="0.5" width="46" height="46" fill="#D9D9D9"/>
</mask>
<g mask="url(#mask0_28_39454)">
<path d="M23.5003 43.6885C20.722 43.6885 18.1012 43.1589 15.6376 42.0996C13.1744 41.0403 11.0315 39.6028 9.20911 37.7871C7.387 35.971 5.94854 33.8304 4.89373 31.3653C3.83893 28.8998 3.31152 26.278 3.31152 23.4998C3.31152 20.7216 3.84116 18.1007 4.90044 15.6371C5.95972 13.1739 7.39722 11.031 9.21294 9.20862C11.029 7.38651 13.1696 5.94805 15.6347 4.89324C18.1002 3.83844 20.722 3.31104 23.5003 3.31104C26.2785 3.31104 28.8993 3.84068 31.3629 4.89995C33.8261 5.95923 35.969 7.39673 37.7914 9.21245C39.6135 11.0285 41.052 13.1691 42.1068 15.6342C43.1616 18.0997 43.689 20.7216 43.689 23.4998C43.689 26.278 43.1593 28.8989 42.1001 31.3624C41.0408 33.8256 39.6033 35.9685 37.7876 37.7909C35.9715 39.613 33.8309 41.0515 31.3658 42.1063C28.9003 43.1611 26.2785 43.6885 23.5003 43.6885ZM23.5003 33.2268C24.8672 31.8651 26.0774 30.4638 27.1309 29.0231C28.0279 27.8073 28.8583 26.4506 29.6221 24.9531C30.3859 23.4555 30.7678 21.9733 30.7678 20.5064C30.7678 18.5089 30.057 16.8047 28.6355 15.3937C27.214 13.983 25.5022 13.2777 23.5003 13.2777C21.4983 13.2777 19.792 13.983 18.3813 15.3937C16.9703 16.8047 16.2648 18.5051 16.2648 20.4949C16.2648 21.9675 16.64 23.4528 17.3904 24.9507C18.1408 26.4486 18.9726 27.8057 19.8859 29.0222C20.9465 30.4625 22.1512 31.8641 23.5003 33.2268ZM23.5003 23.1322C22.7681 23.1322 22.1458 22.8797 21.6334 22.3747C21.121 21.8696 20.8648 21.2563 20.8648 20.5347C20.8648 19.8131 21.121 19.1898 21.6334 18.665C22.1458 18.1401 22.7681 17.8777 23.5003 17.8777C24.2324 17.8777 24.86 18.1385 25.3829 18.6602C25.9061 19.1818 26.1678 19.8025 26.1678 20.5222C26.1678 21.2419 25.9084 21.8569 25.3896 22.367C24.8708 22.8772 24.241 23.1322 23.5003 23.1322Z" fill="#1C1B1F"/>
</g>
</svg>
