<svg width="40" height="40" viewBox="0 0 40 40" fill="none" xmlns="http://www.w3.org/2000/svg">
<g clip-path="url(#clip0_28_39407)">
<path d="M39.6478 7.94678L27.5166 19.9998L39.6478 32.0529C39.8671 31.5945 40.0001 31.0878 40.0001 30.5467V9.45295C40.0001 8.91178 39.8671 8.40514 39.6478 7.94678Z" fill="black"/>
<path d="M36.4842 5.9375H3.51545C2.97428 5.9375 2.46764 6.07055 2.00928 6.28984L17.5142 21.7166C18.8851 23.0876 21.1145 23.0876 22.4855 21.7166L37.9904 6.28984C37.532 6.07055 37.0254 5.9375 36.4842 5.9375Z" fill="black"/>
<path d="M0.352344 7.94678C0.133047 8.40514 0 8.91178 0 9.45295V30.5467C0 31.0879 0.133047 31.5946 0.352344 32.0529L12.4835 19.9998L0.352344 7.94678Z" fill="black"/>
<path d="M25.8592 21.6572L24.1426 23.3739C21.8583 25.6582 18.1413 25.6582 15.857 23.3739L14.1404 21.6572L2.00928 33.7103C2.46764 33.9296 2.97428 34.0626 3.51545 34.0626H36.4842C37.0254 34.0626 37.532 33.9296 37.9904 33.7103L25.8592 21.6572Z" fill="black"/>
</g>
<defs>
<clipPath id="clip0_28_39407">
<rect width="40" height="40" fill="white"/>
</clipPath>
</defs>
</svg>
