<svg width="781" height="436" viewBox="0 0 781 436" fill="none" xmlns="http://www.w3.org/2000/svg">
<g filter="url(#filter0_d_37_39496)">
<path d="M149.745 72.5472L148.433 82.0118C148.184 83.8073 150.353 84.8972 151.645 83.6257L165.249 70.2398L149.745 72.5472Z" fill="#C2C9EC"/>
<path d="M153.998 73.2783L234.853 62.8868C239.917 62.2359 243.494 57.6034 242.844 52.5395L240.636 35.3618C239.985 30.298 235.353 26.7205 230.289 27.3714L149.434 37.7629C144.37 38.4138 140.792 43.0463 141.443 48.1101L143.651 65.2877C144.302 70.3517 148.934 73.929 153.998 73.2783Z" fill="#F2CC2E"/>
<path d="M722.481 76.5625C721.725 90.6578 720.542 100.181 709.253 79.7435C697.965 59.3064 722.481 76.5625 722.481 76.5625Z" fill="#FDE7E7"/>
<path d="M617.116 82.0169C611.871 91.2174 608.313 95.3772 607.357 95.9491C606.401 96.521 606.551 98.7369 609.914 98.2062C613.276 97.6755 622.142 95.1649 626.315 88.0261C630.489 80.8873 617.116 82.0169 617.116 82.0169Z" fill="#ADC9B9"/>
<path d="M568.421 166.649C580.2 163.448 583.402 160.306 585.939 161.877C588.476 163.448 593.248 173.354 569.75 183.26C546.252 193.167 568.421 166.649 568.421 166.649Z" fill="url(#paint0_linear_37_39496)"/>
<path d="M184.609 202.469C201.04 204.523 203.939 203.073 205.026 206.456C206.114 209.838 203.093 217.812 186.905 214.188C170.716 210.563 184.609 202.469 184.609 202.469Z" fill="url(#paint1_linear_37_39496)"/>
<path d="M284.76 325.453C282.784 332.106 262.289 328.239 242.235 311.081C269.78 343.816 295.15 333.57 284.76 325.453Z" fill="#A97670"/>
<path d="M210.491 49.8204C195.869 51.4264 163.6 56.4193 158.478 57.317C154.575 58.0014 153.615 62.506 160.072 61.8752C178.424 60.0827 222.637 55.0327 230.414 52.4049C230.433 52.3986 230.452 52.3922 230.47 52.3857C232.787 51.5884 232.511 48.205 230.098 47.776C225.098 46.8864 217.884 49.0083 210.491 49.8204Z" fill="#FFF8F8"/>
<path d="M208.154 39.5278C193.532 41.1338 161.263 46.1267 156.141 47.0245C152.238 47.7088 151.278 52.2134 157.735 51.5827C176.087 49.7901 220.301 44.7401 228.078 42.1123C228.096 42.106 228.115 42.0996 228.133 42.0932C230.45 41.2959 230.174 37.9124 227.762 37.4834C222.761 36.5938 215.547 38.7157 208.154 39.5278Z" fill="#FFF8F8"/>
<path d="M658.303 165.26C654.385 162.641 638.732 152.937 634.745 152.333C630.759 151.729 628.101 154.266 630.396 158.796C632.692 163.327 641.265 171.431 643.925 171.849C647.793 176.978 654.8 182.052 655.283 182.052C655.766 182.052 658.303 165.26 658.303 165.26Z" fill="url(#paint2_linear_37_39496)"/>
<path d="M502.338 337.896C502.338 337.896 505.721 297.304 506.204 295.855C506.687 294.405 522.634 289.089 529.641 274.109C536.648 269.277 552.111 259.612 552.111 259.612L518.526 185.193C518.526 185.193 487.841 200.415 476.968 212.496C466.095 224.577 448.94 241.249 449.423 266.377C449.906 291.506 440.725 336.205 440.725 336.205L502.338 337.896Z" fill="#F07B5C"/>
<path d="M641.269 245.115C644.41 266.619 660.115 280.149 664.464 286.19C668.814 292.231 666.639 316.876 666.639 316.876C666.639 316.876 690.318 340.554 724.386 314.943C724.386 292.231 725.111 274.351 728.977 256.713C732.843 239.074 732.601 228.685 730.91 224.819C729.218 220.953 707.231 195.583 707.231 195.583L641.269 245.115Z" fill="#F07B5C"/>
<path d="M281.74 335.722C281.74 335.722 289.23 309.144 292.613 304.553C295.996 299.962 324.024 281.841 330.547 259.854C356.401 256.954 374.764 260.337 378.871 257.196C382.979 254.055 378.871 246.806 378.871 246.806L275.7 190.75C275.7 190.75 258.062 221.919 252.504 254.296C246.947 286.673 231 299.721 224.235 321.466C217.47 343.212 281.74 335.722 281.74 335.722Z" fill="#F07B5C"/>
<path d="M142.084 331.131C145.709 308.419 144.984 302.62 152.957 292.955C160.931 283.29 171.32 268.552 173.736 260.82C178.569 260.82 190.65 255.021 190.891 254.296C191.133 253.571 195.24 235.933 184.126 226.752C173.012 217.57 115.265 181.086 109.466 187.368C103.667 193.65 102.942 197.274 102.217 208.63C101.492 219.986 96.6599 244.39 95.452 257.196C94.2438 270.002 100.043 277.492 84.5791 316.634C69.1154 355.776 142.084 331.131 142.084 331.131Z" fill="#F07B5C"/>
<path d="M145.467 349.736C145.467 349.736 147.074 328.531 145.467 323.883C143.86 319.235 130.97 307.936 112.124 307.452C93.2774 306.969 84.8207 310.11 83.6128 312.285C82.4046 314.459 74.9146 338.788 74.9146 338.788L145.467 349.736Z" fill="#CD0369"/>
<path d="M148.83 410C149.281 383.771 149.32 359.156 148.367 352.545C146.137 337.075 126.383 332.404 113.336 329.746C100.288 327.088 77.5722 325.967 72.4982 334.907C69.9564 339.385 55.7746 375.146 42.2822 410H148.83Z" fill="#DB5F24"/>
<path d="M273.283 379.455C273.283 379.455 287.297 338.138 288.143 333.064C288.989 327.99 287.502 326.817 284.984 324.806C284.76 325.453 284.76 325.453 284.76 325.453C284.76 325.453 291.402 330.527 280.833 333.064C270.263 335.601 245.773 315.93 238.974 307.403C233.625 300.695 235.461 297.835 235.461 297.835C235.461 297.835 233.554 298.673 231.908 301.214C230.716 303.053 212.396 340.675 210.704 346.474C209.013 352.273 273.283 379.455 273.283 379.455Z" fill="#FFDBCC"/>
<path d="M283.086 410L295.996 373.173C295.996 373.173 270.545 363.508 244.128 357.387C217.711 351.266 214.305 337.243 215.593 331.424C214.435 333.058 194.821 374.533 179.213 410H283.086Z" fill="#6DDBEB"/>
<path d="M517.479 410C516.533 400.618 515.588 392.212 514.741 386.291C512.266 368.979 511.515 367.636 510.491 360.857C509.626 355.123 506.043 353.27 505.882 352.625C505.721 351.981 504.11 336.034 504.11 332.813C504.11 329.591 499.6 330.719 494.768 331.524C489.935 332.329 473.99 334.932 454.175 328.248C444.03 324.827 441.938 321.37 441.289 325.51C439.355 337.844 439.356 351.659 437.101 354.075C434.846 356.491 431.947 361.646 431.302 365.995C431.028 367.845 428.83 387.421 426.469 410L517.479 410Z" fill="#CD0369"/>
<path d="M447.411 331.453C444.672 331.453 443.061 349.655 445.639 350.461C448.216 351.266 450.632 331.453 447.411 331.453Z" fill="#3D6328"/>
<path d="M459.732 335.146C457.002 335.357 456.8 353.629 459.432 354.233C462.063 354.838 462.944 334.898 459.732 335.146Z" fill="#3D6328"/>
<path d="M474.032 337.899C471.302 338.11 471.1 356.382 473.731 356.986C476.363 357.591 477.244 337.65 474.032 337.899Z" fill="#3D6328"/>
<path d="M488.69 338.282C485.96 338.493 485.757 356.765 488.389 357.369C491.021 357.974 491.902 338.033 488.69 338.282Z" fill="#3D6328"/>
<path d="M497.389 336.971C494.658 337.182 494.456 355.454 497.088 356.058C499.72 356.662 500.601 336.722 497.389 336.971Z" fill="#3D6328"/>
<path d="M727.165 349.736C727.165 349.736 726.198 321.829 725.957 316.392C725.715 310.956 721.637 312.427 711.419 315.614C695.821 320.481 675.325 316.876 670.13 313.976C664.935 311.077 666.035 313.131 665.431 316.392C664.828 319.654 661.807 352.515 661.807 352.515C661.807 352.515 701.312 390.69 727.165 349.736Z" fill="#FFDBCC"/>
<path d="M741.495 402C739.064 379.448 736.088 362.205 734.051 354.693C730.185 340.437 728.504 335.821 726.928 335.834C713.272 347.123 697.566 348.894 683.553 345.27C669.539 341.645 662.887 333.845 662.887 333.845C662.887 333.845 660.357 333.97 659.149 340.707C658.558 344.001 652.078 372.479 645.946 402L741.495 402Z" fill="#F2CC2E"/>
<path d="M127.252 259.931L182.48 252.833C188.72 252.031 193.128 246.323 192.326 240.083L176.465 116.673C175.663 110.433 169.955 106.025 163.716 106.827L108.487 113.925C102.248 114.727 97.8397 120.435 98.6415 126.674L114.502 250.085C115.304 256.325 121.012 260.733 127.252 259.931Z" fill="#352D4E"/>
<path d="M128.227 249.285L178.846 242.779C183.91 242.128 187.487 237.496 186.836 232.432L172.338 119.621C171.687 114.557 167.054 110.98 161.991 111.631L111.372 118.136C106.308 118.787 102.73 123.42 103.381 128.484L117.88 241.294C118.531 246.358 123.163 249.936 128.227 249.285Z" fill="#A87AC6"/>
<path d="M411.938 154.991H282.017C275.726 154.991 270.626 160.091 270.626 166.382V222.851C270.626 229.142 275.726 234.242 282.017 234.242H411.939C418.229 234.242 423.329 229.142 423.329 222.851V166.382C423.329 160.091 418.229 154.991 411.938 154.991Z" fill="#352D4E"/>
<path d="M124.518 189.86L123.061 198.31C123.061 199.605 123.774 199.883 124.651 198.931L130.243 193.151C131.081 192.241 124.518 189.075 124.518 189.86Z" fill="#FDE7E7"/>
<path d="M176.45 224.767L179.565 233.265C180.209 234.276 179.677 234.934 178.553 234.515L166.667 230.083L176.45 224.767Z" fill="#C2C9EC"/>
<path d="M167.981 170.065C165.321 167.737 124.374 172.784 120.68 175.503C116.985 178.223 122.21 191.548 123.472 193.321C124.733 195.094 167.222 191.124 169.677 186.605C172.131 182.087 170.271 172.069 167.981 170.065Z" fill="#FDE7E7"/>
<path d="M113.249 126.029L111.791 134.479C111.791 135.774 112.504 136.053 113.381 135.1L118.973 129.321C119.812 128.41 113.249 125.244 113.249 126.029Z" fill="#FDE7E7"/>
<path d="M158.407 122.774C159.83 120.155 159.801 115.688 159.081 112.005L111.372 118.137C110.348 118.268 109.386 118.565 108.506 118.993C109.382 123.491 111.466 128.456 112.202 129.491C113.464 131.263 155.952 127.293 158.407 122.774Z" fill="#FDE7E7"/>
<path d="M172.3 199.356C170.46 197.533 130.883 201.551 126.689 204.699C122.495 207.848 125.071 233.17 128.506 235.393C131.941 237.616 175.305 230.055 176.879 228.755C178.453 227.455 175.441 202.469 172.3 199.356Z" fill="#C2C9EC"/>
<path d="M411.164 157.863H291.056C286.148 157.863 282.168 161.843 282.168 166.751V222.482C282.168 227.39 286.148 231.37 291.056 231.37H411.163C416.072 231.37 420.051 227.39 420.051 222.482V166.751C420.051 161.843 416.072 157.863 411.164 157.863Z" fill="#FDD300"/>
<path d="M570.022 263.937L511.229 270.275C504.975 270.949 499.357 266.426 498.683 260.171L485.088 134.052C484.413 127.797 488.937 122.18 495.192 121.506L553.985 115.168C560.24 114.493 565.857 119.017 566.531 125.272L580.127 251.391C580.801 257.646 576.277 263.263 570.022 263.937Z" fill="#352D4E"/>
<path d="M568.218 257.026L511.519 263.138C506.084 263.724 501.204 259.793 500.618 254.359L487.699 134.52C487.114 129.085 491.044 124.205 496.479 123.619L553.178 117.507C558.612 116.921 563.493 120.852 564.079 126.286L576.997 246.125C577.583 251.56 573.653 256.44 568.218 257.026Z" fill="#F6FAF3"/>
<path d="M700.441 250.874L649.98 240.479C643.819 239.21 639.853 233.186 641.122 227.024L666.513 103.761C667.782 97.5995 673.806 93.6336 679.968 94.9028L730.428 105.297C736.59 106.566 740.556 112.59 739.287 118.752L713.895 242.015C712.626 248.177 706.602 252.143 700.441 250.874Z" fill="#352D4E"/>
<path d="M702.32 242.351L652.192 232.025C647.549 231.069 644.561 226.529 645.517 221.886L669.638 104.79C670.595 100.147 675.134 97.1586 679.777 98.115L729.905 108.441C734.548 109.397 737.536 113.937 736.58 118.58L712.459 235.676C711.502 240.319 706.963 243.308 702.32 242.351Z" fill="#C2C9EC"/>
<path d="M678.295 108.99C676.9 108.702 676.002 107.338 676.289 105.943L676.384 105.483C676.672 104.088 678.036 103.19 679.431 103.477C680.826 103.765 681.724 105.129 681.437 106.524L681.342 106.984C681.055 108.379 679.691 109.277 678.295 108.99Z" fill="#FFF8F8"/>
<path d="M684.373 110.266C682.978 109.979 682.08 108.615 682.367 107.22L682.462 106.76C682.749 105.365 684.113 104.467 685.508 104.754C686.904 105.041 687.802 106.405 687.514 107.801L687.42 108.26C687.132 109.656 685.768 110.554 684.373 110.266Z" fill="#FFF8F8"/>
<path d="M690.48 111.545C689.085 111.258 688.187 109.894 688.474 108.499L688.569 108.039C688.857 106.644 690.221 105.745 691.616 106.033C693.011 106.32 693.909 107.684 693.622 109.079L693.527 109.539C693.24 110.935 691.876 111.833 690.48 111.545Z" fill="#FFF8F8"/>
<path d="M730.78 119.801L726.425 118.904C725.207 118.653 724.423 117.463 724.674 116.245L724.901 115.143C725.152 113.925 726.343 113.141 727.56 113.392L731.915 114.289C733.133 114.54 733.917 115.73 733.666 116.948L733.439 118.05C733.188 119.268 731.998 120.052 730.78 119.801Z" fill="#352D4E"/>
<path d="M722.442 118.084C722.984 118.195 723.514 117.846 723.626 117.304L724.357 113.755C724.468 113.213 724.12 112.683 723.577 112.571C723.035 112.46 722.505 112.808 722.393 113.351L721.662 116.9C721.551 117.442 721.9 117.972 722.442 118.084Z" fill="#352D4E"/>
<path d="M720.081 139.636C719.679 138.025 720.404 136.092 720.484 132.79C720.565 129.488 720.886 123.85 719.96 122.722C719.034 121.595 718.254 123.194 717.825 126.486C717.496 129.008 716.881 127.556 716.429 125.591C715.706 122.45 715.652 120.467 714.202 120.628C712.752 120.789 713.71 123.659 714.202 128.038C714.327 129.153 714.326 129.327 713.459 127.958C712.591 126.588 711.222 123.447 710.175 123.769C709.128 124.092 709.37 125.702 710.175 127.072C710.981 128.441 712.591 131.34 712.753 131.904C712.914 132.468 711.142 131.984 710.497 131.501C709.853 131.018 708.78 131.664 709.478 133.113C710.175 134.562 712.994 136.736 714.283 137.22C715.571 137.703 716.634 141.649 716.634 141.649L720.081 139.636Z" fill="#F07B5C"/>
<path d="M146.412 134.357C135.588 136.488 131.968 149.421 139.236 157.863C146.074 165.807 161.168 162.587 163.744 152.927C166.32 143.266 161.061 131.473 146.412 134.357Z" fill="#FEB845"/>
<path d="M150.854 151.102C149.19 151.356 147.565 151.408 146.03 151.284C145.089 151.208 144.777 152.505 145.639 152.89C147.238 153.604 149.852 155.679 151.712 155.395C153.423 155.134 154.158 152.632 155.415 151.619C156.15 151.026 155.493 149.869 154.601 150.179C153.427 150.587 152.171 150.901 150.854 151.102Z" fill="#FFF8F8"/>
<path d="M145.898 145.564C146.838 145.564 147.599 144.802 147.599 143.863C147.599 142.923 146.838 142.162 145.898 142.162C144.959 142.162 144.197 142.923 144.197 143.863C144.197 144.802 144.959 145.564 145.898 145.564Z" fill="#FFF8F8"/>
<path d="M152.155 144.665C153.094 144.665 153.856 143.904 153.856 142.964C153.856 142.025 153.094 141.263 152.155 141.263C151.215 141.263 150.454 142.025 150.454 142.964C150.454 143.904 151.215 144.665 152.155 144.665Z" fill="#FFF8F8"/>
<path d="M358.978 228.04H345.77C345.77 228.04 345.77 225.624 348.83 225.141C351.891 224.658 365.904 223.53 365.904 223.53L358.978 228.04Z" fill="#9AA5AE"/>
<path d="M372.439 100.217L381.204 113.482C382.569 115.548 385.757 114.884 386.184 112.445L388.954 96.5934L372.439 100.217Z" fill="#C2C9EC"/>
<path d="M381.015 35.4022C366.888 33.591 344.281 36.2493 340.095 63.0212C335.91 89.7931 355.904 104.873 379.965 101.146C404.026 97.4179 410.126 78.9488 409.617 62.1741C409.109 45.3994 392.909 36.9272 381.015 35.4022Z" fill="#6DDBEB"/>
<path d="M553.543 36.0131C547.237 32.5974 482.507 38.4293 476.95 44.4698C471.393 50.5104 475.983 92.5521 482.024 96.2971C488.065 100.042 545.946 95.0795 557.303 87.831C568.658 80.5822 559.342 39.1543 553.543 36.0131Z" fill="#F2CC2E"/>
<path d="M374.79 86.4422C392.93 72.1459 397.482 67.0427 396.168 58.973C394.854 50.9034 380.293 50.0436 374.647 62.9664C366.229 47.7133 353.849 53.8668 352.839 64.7695C351.828 75.6722 374.79 86.4422 374.79 86.4422Z" fill="#FFF8F8"/>
<path d="M513.288 59.4952C510.116 56.924 504.845 58.905 503.651 59.5935C502.458 60.2817 503.617 85.3626 504.624 86.4373C505.63 87.5118 514.062 86.7763 515.295 86.1941C516.528 85.6117 515.023 60.9017 513.288 59.4952Z" fill="#FFF8F8"/>
<path d="M516.112 59.2852C517.345 58.703 522.668 49.3355 523.054 47.1353C523.441 44.9351 522.648 41.8459 522 39.7908C521.352 37.7357 525.807 36.069 528.084 39.5703C530.362 43.0717 530.914 48.4276 530.011 50.2163C530.432 53.9282 529.133 56.47 529.133 56.47C529.133 56.47 537.006 55.3386 538.861 56.0958C540.716 56.853 541.308 62.3147 540.644 63.7724C542.644 66.5312 541.369 68.9428 541.064 69.4196C542.745 72.2975 541.604 74.4175 541.126 75.0799C543.006 77.5206 543.002 82.3589 541.066 83.325C539.13 84.291 529.081 85.8736 525.675 84.8502C522.269 83.8269 518.994 84.4471 518.319 83.6116C517.644 82.7758 517.513 64.3237 516.112 59.2852Z" fill="#FFF8F8"/>
<path d="M665.057 83.4436C664.942 78.0946 613.883 64.2929 609.368 70.1707C604.853 76.0485 602.623 88.0415 605.446 91.0249C608.269 94.0082 652.57 106.288 658.457 103.162C664.345 100.037 665.134 87.0208 665.057 83.4436Z" fill="#F07B5C"/>
<path d="M633.291 84.0385C632.281 81.9171 629.916 78.5141 629.401 78.3415C628.885 78.1689 627.566 79.447 627.718 79.7529C627.871 80.0586 630.056 89.1347 629.766 92.2861C629.651 92.6298 630.777 93.2616 631.522 93.3198C632.267 93.3779 641.105 82.7683 645.424 81.2838C646.417 80.9794 645.331 79.087 643.63 79.4097C641.93 79.7323 635.375 82.3793 633.291 84.0385Z" fill="#FFF8F8"/>
<path d="M656.32 18.1601C644.974 17.5431 635.493 17.5955 631.401 40.0619C627.308 62.5281 641.775 64.7255 653.999 67.676C666.222 70.6262 719.358 83.3968 731.606 81.8877C743.853 80.3785 752.641 43.572 741.902 38.7294C731.162 33.8868 666.367 18.7062 656.32 18.1601Z" fill="#CD0369"/>
<path d="M554.63 123.45C548.966 121.358 495.514 126.188 494.708 130.054C493.903 133.92 497.607 181.613 501.796 183.62C505.984 185.626 556.601 183.268 559.202 178.073C561.804 172.88 557.247 124.417 554.63 123.45Z" fill="#8446E7"/>
<path d="M501.312 132.631C505.321 132.23 510.655 129.058 511.347 125.874C502.104 127.147 494.998 128.663 494.708 130.054C494.475 131.173 494.62 135.967 495.045 142.262C501.895 141.041 505.178 137.582 505.178 136.013C505.178 134.242 498.091 134.886 497.285 134.403C496.48 133.92 496.48 133.114 501.312 132.631Z" fill="#537947"/>
<path d="M556.563 179.743C556.021 179.293 555.531 179.067 555.153 179.183C553.059 179.825 550.763 179.666 553.502 177.208C556.24 174.749 556.723 169.841 554.629 169.357C552.535 168.874 549.152 169.68 546.736 171.773C544.32 173.868 544.803 178.217 543.515 178.055C542.226 177.894 544.159 173.384 541.904 170.84C539.856 168.531 534.621 172.647 527.404 183.794C538.995 183.085 551.236 181.694 556.563 179.743Z" fill="#537947"/>
<path d="M505.178 175.962C518.557 180.119 525.796 176.619 528.212 173.069C528.678 171.535 523.394 169.242 520.656 168.598C517.918 167.954 522.736 165.008 526.602 166.78C530.468 168.552 540.616 164.686 541.743 162.753C542.871 160.82 538.361 156.632 534.817 156.149C531.273 155.666 527.862 152.122 532.387 152.363C536.911 152.605 541.421 153.643 543.676 148.775C545.931 143.907 548.508 136.175 548.025 133.437C547.542 130.698 532.856 134.725 532.387 136.497C531.917 138.269 532.722 141.434 531.434 143.395C530.145 145.356 528.857 144.229 529.179 141.652C529.501 139.075 528.593 134.242 526.631 133.437C524.668 132.632 519.675 140.468 520.158 143.396C520.641 146.323 522.091 150.028 521.286 151.478C520.48 152.927 518.064 151.549 518.064 148.775C518.064 146.001 516.775 141.805 514.681 140.521C512.587 139.236 508.582 150.279 508.721 152.364C509.088 157.864 513.554 160.659 512.587 162.431C511.621 164.203 508.882 163.288 508.238 158.832C507.594 154.377 507.111 152.605 505.178 152.364C503.245 152.122 499.701 161.787 500.506 165.975C501.311 170.163 505.178 175.962 505.178 175.962Z" fill="white"/>
<path d="M525.152 155.263C520.481 162.834 503.048 171.706 502.279 178.297C501.932 181.265 503.189 179.922 503.487 179.022C505.61 172.609 524.152 160.176 526.246 155.988C528.34 151.8 525.763 154.273 525.152 155.263Z" fill="#406D47"/>
<path d="M533.709 187.677C526.577 185.639 504.836 189.006 503.144 190.214C501.453 191.422 504.827 224.499 505.795 225.611C507.373 227.423 536.216 225.421 537.333 223.195C538.783 220.306 536.246 188.402 533.709 187.677Z" fill="#F2CC2E"/>
<path d="M561.723 185.924C554.59 183.886 541.388 186.061 539.697 187.269C538.005 188.477 541.379 221.554 542.347 222.666C543.925 224.478 563.414 223.013 565.347 221.442C567.28 219.872 564.259 186.649 561.723 185.924Z" fill="#C2C9EC"/>
<path d="M531.051 222.47C530.891 218.243 529.964 205.799 529.601 205.315C529.239 204.832 510.393 206.046 510.272 206.466C510.151 206.886 510.997 221.879 512.205 223.503C513.413 225.128 531.091 223.54 531.051 222.47Z" fill="#F8A204"/>
<path d="M519.922 202.174C525.802 197.664 524.183 193.751 521.731 193.009C519.278 192.268 517.023 199.355 519.922 202.174Z" fill="#99AC5F"/>
<path d="M519.6 202.899C519.922 195.087 515.331 193.235 512.996 194.362C510.66 195.49 512.351 202.255 519.6 202.899Z" fill="#99AC5F"/>
<path d="M552.475 215.018C552.81 217.514 551.657 219.447 552.475 219.609C553.293 219.77 556.193 220.194 556.112 218.975C556.031 217.756 554.772 214.696 554.772 214.696L552.475 215.018Z" fill="#A0ABE1"/>
<path d="M552.649 192.889C551.011 192.316 548.38 197.733 547.011 199.489C545.642 201.245 548.783 202.373 548.783 202.373C548.783 202.373 545.803 206.964 544.837 208.816C543.87 210.669 547.897 211.796 547.897 211.796C547.897 211.796 544.595 215.501 545.159 216.669C545.723 217.837 560.367 216.762 561.3 215.608C562.233 214.454 557.885 211.071 557.885 211.071C557.885 211.071 561.589 210.347 562.072 209.058C562.555 207.769 556.595 202.454 556.595 202.454C556.595 202.454 559.092 200.843 559.253 199.876C559.414 198.91 553.857 193.312 552.649 192.889Z" fill="#FFF8F8"/>
<path d="M554.421 197.309C552.398 197.649 552.488 200.669 554.985 200.313C557.481 199.957 556.756 196.916 554.421 197.309Z" fill="#F2CC2E"/>
<path d="M549.406 206.48C547.097 206.967 547.617 210.503 549.406 210.371C552.112 210.171 551.317 206.078 549.406 206.48Z" fill="#F2CC2E"/>
<path d="M557.284 212.07C555.619 210.738 553.668 213.989 555.842 214.553C558.018 215.116 558.492 213.036 557.284 212.07Z" fill="#F2CC2E"/>
<path d="M568.663 252.845C569.768 249.201 567.167 227.799 564.917 227.254C562.667 226.709 510.11 229.392 508.175 232.075C506.24 234.758 509.183 258.644 511 259.509C512.817 260.374 567.798 255.701 568.663 252.845Z" fill="#C2C9EC"/>
<path d="M559.044 246.894C560.039 241.7 554.271 239.116 548.56 240.037C542.848 240.958 538.002 247.011 542.502 249.841C547.002 252.672 558.277 250.895 559.044 246.894Z" fill="#F8A204"/>
<path d="M564.225 242.373C562.621 243.007 560.503 244.303 560.071 243.381C559.638 242.46 562.753 240.926 564.225 240.957C565.696 240.988 565.525 241.859 564.225 242.373Z" fill="#FFF8F8"/>
<path d="M560.03 233.719C559.283 232.726 554.6 238.825 555.475 239.431C556.349 240.036 560.941 234.93 560.03 233.719Z" fill="#FFF8F8"/>
<path d="M550.637 231.209C548.818 231.057 549.167 238.306 549.946 238.306C550.724 238.305 551.674 231.295 550.637 231.209Z" fill="#FFF8F8"/>
<path d="M541.637 233.199C539.877 234.028 543.246 238.874 544.072 238.652C545.358 238.305 543.108 232.507 541.637 233.199Z" fill="#FFF8F8"/>
<path d="M536.618 238.693C535.12 239.726 538.695 242.294 539.647 241.689C540.599 241.083 537.31 238.215 536.618 238.693Z" fill="#FFF8F8"/>
<path d="M633.779 228.202C629.672 232.549 626.772 238.063 627.497 240.683C628.222 243.303 631.846 251.639 634.021 253.088C636.195 254.538 647.189 259.733 649.726 260.337C652.263 260.941 655.525 257.369 653.592 254.021C651.659 250.672 633.779 228.202 633.779 228.202Z" fill="url(#paint3_linear_37_39496)"/>
<path d="M632.088 213.606C628.826 218.416 626.772 225.544 628.463 228.201C630.155 230.859 641.994 242.403 643.685 244.303C645.377 246.202 646.706 246.429 649.364 245.651C652.021 244.873 655.404 235.744 646.222 225.57C642.357 216.416 641.269 213.834 641.269 213.834L632.088 213.606Z" fill="url(#paint4_linear_37_39496)"/>
<path d="M632.33 220.357C637.206 225.217 646.35 221.754 645.924 203.715C648.683 190.322 648.683 190.322 648.683 190.322C648.683 190.322 635.954 191.853 633.658 193.718C631.363 195.583 629.913 217.949 632.33 220.357Z" fill="url(#paint5_linear_37_39496)"/>
<path d="M631.765 219.24C632.33 220.357 636.195 215.764 637.081 215.097C637.967 214.429 637.162 208.147 635.954 207.181C634.746 206.214 631.446 208.067 631.082 208.953C630.719 209.839 631.201 218.123 631.765 219.24Z" fill="#FFDBCC"/>
<path d="M643.686 234.242C642.627 234.475 638.981 239.488 639.528 240.041C640.074 240.594 643.847 245.598 645.377 245.115C646.907 244.631 648.035 242.86 648.035 241.974C648.035 241.088 644.322 234.102 643.686 234.242Z" fill="#FFDBCC"/>
<path d="M646.343 248.949C644.33 249.303 641.269 254.216 642.074 255.504C642.88 256.793 647.632 258.723 649.162 258.08C650.692 257.437 651.981 255.826 651.739 254.779C651.498 253.732 648.033 248.652 646.343 248.949Z" fill="#FFDBCC"/>
<path d="M696.751 231.726C700.901 223.411 700.76 206.678 703.177 203.688C705.593 200.698 726.251 188.738 724.681 163.126C723.11 137.515 721.177 138.481 720.09 137.998C719.002 137.515 714.895 139.448 715.741 140.656C716.586 141.864 721.056 151.408 719.969 165.422C718.882 179.436 707.77 186.473 698.076 186.513C692.554 184.589 679.45 181.51 670.422 183.208C664.368 184.348 651.527 196.786 651.527 196.786L649.581 206.231C649.581 206.231 657.994 202.989 658.84 202.991C659.685 202.994 652.556 224.324 655.104 225.895C657.652 227.465 693.136 238.968 696.751 231.726Z" fill="#FFF8F8"/>
<path d="M682.398 209.155C668.384 207.084 666.692 222.69 677.203 226.554C687.713 230.417 692.233 210.609 682.398 209.155Z" fill="#9EB986"/>
<path d="M683.384 212.521L682.699 214.545C682.546 214.998 682.074 215.269 681.611 215.154C680.79 214.95 679.565 214.928 679.137 216.403C678.612 218.215 679.367 219.275 680.362 219.64C680.811 219.805 681.045 220.301 680.911 220.76C680.362 222.639 680.163 224.015 679.137 224.015C678.956 224.015 675.874 223.531 675.512 221.175C675.149 218.82 677.082 212.719 678.713 211.692C679.752 211.038 681.501 211.143 682.635 211.306C683.21 211.389 683.571 211.971 683.384 212.521Z" fill="#F6FAF3"/>
<path d="M692.17 169.319C688.487 180.906 689.375 184.956 689.52 185.753C689.664 186.549 685.174 186.987 682.535 186.309C679.895 185.63 677.674 184.113 679.039 182.993C680.404 181.873 684.344 174.53 684.337 167.34C684.331 160.15 692.17 169.319 692.17 169.319Z" fill="#EE6642"/>
<path d="M698.725 139.767C692.179 136.997 677.785 136.528 668.281 151.276C658.778 166.023 663.046 179.956 683.02 173.674C690.349 175.802 690.349 175.802 690.349 175.802C690.349 175.802 696.228 187.986 708.148 182.2C720.068 176.413 718.135 147.982 698.725 139.767Z" fill="#7F555E"/>
<path d="M677.704 161.915C677.302 169.998 681.55 176.976 685.99 178.104C690.429 179.231 700.497 175.205 705.168 159.338C700.497 156.519 698.886 151.606 698.564 151.284C698.242 150.962 687.61 159.821 677.704 161.915Z" fill="#F07B5C"/>
<path d="M686.059 167.553C685.367 166.316 684.63 166.506 684.872 168.6C685.114 170.694 688.255 173.674 691.998 170.387C693.097 169.421 692.378 168.74 691.476 169.003C688.889 169.757 687.047 169.317 686.059 167.553Z" fill="#FFF8F8"/>
<path d="M755.796 116.09C757.194 121.729 758.333 137.836 747.219 145.326C744.924 146.776 745.044 149.071 748.669 147.259C752.293 145.447 762.854 135.828 758.021 115.29C757.417 113.358 755.294 114.065 755.796 116.09Z" fill="#C2C9EC"/>
<path d="M765.968 112.048C768.392 119.974 770.369 142.616 751.09 153.145C747.108 155.183 745.626 157.926 751.913 155.379C758.2 152.832 776.519 139.31 768.136 110.44C767.089 107.723 765.098 109.201 765.968 112.048Z" fill="#C2C9EC"/>
<path d="M748.926 121.41C749.669 124.409 750.276 132.975 744.365 136.959C743.144 137.73 743.933 139.193 745.86 138.229C747.788 137.265 753.405 132.149 750.835 121.226C750.513 120.198 748.659 120.333 748.926 121.41Z" fill="#C2C9EC"/>
<path d="M90.322 99.538C86.0731 103.499 76.3243 116.372 81.5469 128.715C82.6785 131.183 81.3243 133.04 79.2771 129.543C77.23 126.047 73.6333 112.222 88.8944 97.6532C90.4559 96.3634 91.8483 98.1152 90.322 99.538Z" fill="#C2C9EC"/>
<path d="M93.174 107.746C90.9143 109.853 85.7295 116.699 88.5072 123.264C89.1091 124.576 87.6496 125.371 86.5607 123.511C85.4719 121.651 83.5591 114.298 91.6756 106.55C92.5059 105.865 93.9859 106.989 93.174 107.746Z" fill="#C2C9EC"/>
<path d="M325.594 213.216C343.405 213.276 348.116 206.572 346.727 198.658C345.338 190.745 352.465 196.725 349.687 182.651C346.908 168.577 340.083 172.141 339.479 170.933C338.874 169.724 340.505 166.523 334.827 164.53C329.149 162.536 325.283 166.825 323.713 166.765C322.142 166.704 319.605 164.047 312.297 168.154C304.988 172.262 306.92 176.369 306.196 177.879C305.471 179.389 297.195 180.839 298.101 195.155C299.007 209.471 325.594 213.216 325.594 213.216Z" fill="#582B1C"/>
<path d="M351.125 212.456C351.125 212.456 351.93 212.919 350.541 213.765C349.152 214.61 334.413 225.544 332.903 229.107C331.393 232.671 307.17 229.953 305.298 227.175C303.425 224.396 300.586 225.483 302.64 220.047C304.694 214.61 308.801 205.549 309.526 204.825C310.251 204.1 310.374 204.283 311.097 204.221C311.971 204.145 315.256 203.805 317.806 203.216C320.543 202.584 322.627 203.154 323.726 204.18C324.891 205.269 330.366 205.912 330.849 208.057C331.029 208.859 331.936 215.895 332.721 217.026C333.507 218.158 348.16 209.046 349.139 210.016C350.118 210.986 351.125 212.456 351.125 212.456Z" fill="#F8A204"/>
<path d="M351.125 212.456C352.79 210.741 353.662 211.892 354.83 211.167C355.998 210.443 357.73 209.476 358.092 208.671C358.454 207.865 358.092 207.462 358.092 207.462C358.092 207.462 358.696 206.778 358.978 205.892C359.26 205.006 358.092 205.127 358.092 205.127C358.092 205.127 358.253 204.241 357.488 204.362C356.723 204.483 353.904 205.65 353.904 205.65C353.839 204.785 354.775 204.618 354.749 203.838C354.721 202.952 354.145 203.194 353.179 203.999C352.212 204.805 352.183 205.321 351.653 206.587C351.246 207.561 351.407 208.389 349.593 209.627C347.288 211.202 349.796 213.825 351.125 212.456Z" fill="#90442F"/>
<path d="M326.641 193.894C323.373 200.677 323.141 203.018 323.032 204.127C322.922 205.235 317.048 207.11 317.205 202.846C317.362 198.582 321.845 192.097 321.845 192.097L326.641 193.894Z" fill="#883720"/>
<path d="M316.371 183.799C314.109 190.987 316.486 198.707 320.975 200.586C325.465 202.464 336.096 199.685 335.673 182.47C332.713 183.195 331.433 181.46 329.572 179.812C327.458 177.939 324.498 178.941 323.532 182.409C322.656 185.552 318.332 185.671 316.371 183.799Z" fill="#90442F"/>
<path d="M322.17 193.188C323.083 194.113 324.597 194.447 325.7 194.565C326.193 194.618 326.345 195.263 325.923 195.525C325.079 196.048 323.879 196.503 322.716 195.938C321.766 195.476 321.401 194.529 321.288 193.626C321.227 193.135 321.822 192.836 322.17 193.188Z" fill="#FFF8F8"/>
<path d="M221.176 323.024C216.022 335.722 215.961 337.246 217.052 338.645C225.81 349.874 268.732 374.1 283.839 347.583C290.197 361.736 297.445 370.273 295.995 373.173C294.546 376.072 287.734 369.575 252.021 360.931C226.885 354.847 216.026 344.862 214.404 337.808C213.571 334.184 216.308 328.996 221.176 323.024Z" fill="#70414B"/>
<path d="M342.024 234.242C357.428 248.297 386.331 256.177 390.555 244.443C391.104 242.919 390.31 241.236 388.8 240.648C382.742 238.285 374.28 234.242 374.28 234.242H342.024Z" fill="#F07B5C"/>
<path d="M198.382 235.933C203.335 240.403 203.214 247.652 198.382 253.451C193.55 259.249 191.617 260.095 187.992 257.196C184.368 254.296 191.737 239.074 198.382 235.933Z" fill="url(#paint6_linear_37_39496)"/>
<path d="M153.72 198.523C144.32 194.577 136.369 217.283 124.743 235.884C122.41 239.617 120.17 242.834 118.058 245.689V291.09C126.798 294.636 136.418 294.024 140.398 283.363C144.905 271.289 143.594 245.032 148.235 231.552C152.875 218.073 163.119 202.468 153.72 198.523Z" fill="#EAE2D8"/>
<path d="M142.487 283.291C145.944 270.415 142.018 243.504 145.474 229.168C148.93 214.832 157.949 197.758 147.882 194.617C137.816 191.475 131.856 215.637 121.708 235.933C111.56 256.229 102.539 263.156 100.928 275.398C99.3177 287.64 136.044 307.291 142.487 283.291Z" fill="url(#paint7_linear_37_39496)"/>
<path d="M138.615 203.798C142.964 205.569 146.589 208.754 148.038 205.076C149.488 201.399 150.221 197.585 145.505 195.814C140.79 194.043 138.615 203.798 138.615 203.798Z" fill="#FFDBCC"/>
<path d="M194.543 249.343C193.147 251.236 191.219 253.75 192.144 255.021C193.549 256.954 193.516 258.206 194.543 257.921C195.908 257.541 198.382 253.451 198.382 253.451C198.382 253.451 197.309 250.592 194.543 249.343Z" fill="#FFDBCC"/>
<path d="M358.978 228.04C358.978 228.04 383.301 228.04 385.395 228.04C387.489 228.04 388.617 227.074 389.422 224.335C390.228 221.597 391.838 215.154 391.999 213.221C392.16 211.288 390.227 209.194 387.811 208.389C385.395 207.583 372.187 205.167 369.77 205.328C367.354 205.489 366.388 208.711 364.616 213.06C362.844 217.409 358.978 228.04 358.978 228.04Z" fill="#E5EDF0"/>
<path d="M379.052 215.818C375.729 214.734 375.126 219.564 377.602 220.047C380.079 220.53 382.012 216.785 379.052 215.818Z" fill="#BDC4CA"/>
<path d="M291.056 228.04C289.125 228.04 287.339 228.658 285.881 229.705C287.339 230.751 289.125 231.37 291.056 231.37H411.163C413.095 231.37 414.881 230.751 416.339 229.705C414.881 228.658 413.095 228.04 411.163 228.04H291.056Z" fill="#889653"/>
<path d="M319.245 226.023C319.173 225.057 304.033 220.943 302.27 221.128C298.922 221.479 298.386 226.73 299.495 228.04C300.604 229.351 317.778 228.554 318.672 228.04C319.567 227.526 319.245 226.023 319.245 226.023Z" fill="#F9AE24"/>
<path d="M317.711 226.621C317.36 227.523 318.168 228.449 319.118 228.266C321.517 227.805 324.389 228.552 325.513 229.114C326.802 229.758 327.003 228.913 327.003 228.913C327.003 228.913 328.413 229.315 329.46 229.114C330.507 228.913 329.017 227.342 328.574 226.255C328.131 225.167 324.99 224.443 322.453 225.248C320.83 225.763 319.57 225.85 318.872 225.846C318.374 225.843 317.911 226.13 317.722 226.591C317.719 226.601 317.714 226.611 317.711 226.621Z" fill="#90442F"/>
<path opacity="0.83" d="M363.387 197.873C389.165 187.815 389.217 150.294 382.935 149.076C379.94 148.496 351.334 167.267 363.387 197.873Z" fill="url(#paint8_linear_37_39496)"/>
<path d="M373.993 197.619C387.517 205.99 404.776 193.055 403.165 189.748C402.398 188.172 383.893 181.511 373.993 197.619Z" fill="#99AC5F"/>
<path d="M420.051 217.866V205.461C415.059 206.178 409.699 208.699 405.469 214.8C410.075 218.015 415.292 218.6 420.051 217.866Z" fill="#EFC15F"/>
<path d="M282.168 199.356V212.854C285.76 216.49 291.063 219.341 298.611 219.019C298.188 208.317 288.811 201.619 282.168 199.356Z" fill="#99AC5F"/>
<path d="M282.168 171.039V192.723C283.82 194.291 285.856 195.715 288.362 196.9C293.229 186.693 287.187 175.787 282.168 171.039Z" fill="#EFC15F"/>
<path d="M352.24 154.991C351.624 165.342 335.671 162.1 325.4 154.991C338.315 154.991 352.24 154.991 352.24 154.991Z" fill="#EAE2D8"/>
<path d="M299.249 154.991H325.401C325.401 154.991 350.119 163.569 355.164 151.079C355.638 149.905 354.925 148.583 353.704 148.248C341.505 144.896 336.974 143.266 335.259 143.152C333.447 143.031 314.963 145.93 312.305 146.534C309.647 147.138 299.249 154.991 299.249 154.991Z" fill="url(#paint9_linear_37_39496)"/>
<path d="M345.908 146.051C344.973 146.289 346.212 149.595 347.944 150.239C349.676 150.883 352.616 151.648 353.3 151.326C353.985 151.004 355.112 149.188 355.032 148.727C354.951 148.266 347.174 145.729 345.908 146.051Z" fill="#FFDBCC"/>
<path d="M358.873 234.242C356.884 227.097 342.072 226.36 330.372 234.242C337.027 234.242 358.873 234.242 358.873 234.242Z" fill="#EAE2D8"/>
<path d="M295.995 240.683C305.684 238.963 319.37 237.625 324.677 236.779C340.131 230.809 356.166 228.363 359.021 235.933C361.877 243.504 350.869 249.088 332.345 254.081C313.498 266.162 308.558 267.773 308.558 267.773C308.558 267.773 303.54 279.207 298.032 284.2C292.523 289.194 287.458 309.869 266.84 290.539C246.221 271.21 265.068 231.944 295.995 240.683Z" fill="url(#paint10_linear_37_39496)"/>
<path d="M344.014 232.341C331.731 235.346 329.406 236.328 331.767 239.441C334.129 242.553 334.88 247.526 333.914 250.138C332.948 252.751 351.656 251.288 357.329 242.19C363.003 233.092 351.783 230.44 344.014 232.341Z" fill="url(#paint11_linear_37_39496)"/>
<path d="M353.501 232.43C350.564 232.041 343.836 232.973 344.017 234.423C344.199 235.873 346.977 240.101 348.004 245.115C348.357 246.838 355.252 243.423 356.823 241.249C358.394 239.074 356.033 232.765 353.501 232.43Z" fill="#FFDBCC"/>
<path d="M190.907 229.045C178.668 234.968 181.745 243.489 185.824 247.315C185.609 250.282 187.691 250.776 187.691 250.776L191.83 239.262L190.907 229.045Z" fill="#EAE2D8"/>
<path d="M189.729 219.875C189.729 219.875 200.073 227.114 201.16 230.618C202.247 234.121 201.973 236.044 201.16 237.141C200.347 238.238 195.174 245.356 194.543 248.014C193.911 250.672 187.992 249.464 186.421 243.303C184.851 237.141 190.907 229.045 190.907 229.045L189.729 219.875Z" fill="url(#paint12_linear_37_39496)"/>
<path d="M197.379 242.617C196.852 240.363 192.769 238.108 191.83 238.43C190.892 238.752 189.603 243.665 190.247 244.954C190.892 246.242 193.996 248.57 195.142 246.474C196.288 244.378 197.379 242.617 197.379 242.617Z" fill="#FFDBCC"/>
<path d="M531.051 200.827C529.519 200.707 508.057 202.336 507.413 202.899C506.769 203.463 508.138 208.859 508.54 209.101C508.943 209.342 530.528 207.973 531.051 207.651C531.575 207.329 532.099 200.909 531.051 200.827Z" fill="#F9AE24"/>
<path d="M557.97 247.569C554.099 248.864 550.292 249.643 549.599 249.297C548.907 248.95 543.368 246.268 541.637 246.181C539.906 246.094 533.502 249.21 532.81 248.518C532.117 247.825 524.069 241.594 522.251 240.988C520.434 240.383 511.347 248.828 510.741 249.841C510.135 250.854 510.648 257.862 512.126 258.73C513.603 259.598 562.148 255.355 565.004 252.326C567.86 249.297 557.97 247.569 557.97 247.569Z" fill="#7F555E"/>
<path d="M572.991 185.193C570.76 188.261 566.162 195.039 565.265 201.837C564.367 208.635 569.128 212.642 569.128 212.642C569.128 212.642 565.98 226.882 571.865 230.746C568.327 241.12 575.065 243.153 579.091 241.78L572.991 185.193Z" fill="#EAE2D8"/>
<path d="M566.908 243.398C558.576 245.805 553.38 251.287 552.441 251.633C551.503 251.979 544.32 247.998 540.944 249.729C537.569 251.46 532.723 254.403 531.598 255.874C530.473 257.345 564.917 254.749 567.427 252.153C569.937 249.556 568.276 243.003 566.908 243.398Z" fill="#8B656D"/>
<path d="M691.803 40.8364C686.452 39.3359 683.8 46.091 689.521 47.6161C695.243 49.1411 712.229 53.4243 720.618 55.2293C729.006 57.0343 730.06 50.7003 726.276 49.8983C722.492 49.0963 695.295 41.8156 691.803 40.8364Z" fill="#FFF8F8"/>
<path d="M686.838 52.7071C683.72 51.7196 679.63 58.7781 684.24 60.7776C688.85 62.7769 714.284 68.6238 719.3 69.9799C724.316 71.336 725.037 62.8059 721.339 61.6518C717.642 60.4977 690.301 53.8037 686.838 52.7071Z" fill="#FFF8F8"/>
<path d="M657.021 26.9564C651.945 26.9657 651.387 32.4532 649.525 39.3503C647.662 46.2473 644.094 53.0519 652.531 55.2203C660.969 57.3888 671.804 62.9894 674.324 52.1586C676.845 41.3276 680.086 33.045 674.279 31.2759C668.472 29.5068 658.859 26.9532 657.021 26.9564Z" fill="#FFF8F8"/>
<path d="M489.628 176.172C495.994 178.366 495.705 184.444 491.046 189.321L489.628 176.172Z" fill="#EAE2D8"/>
<path d="M476.888 194.617C482.604 193.516 498.392 186.402 490.019 176.535C489.291 175.678 488.052 175.464 487.041 175.957C479.365 179.694 468.908 182.809 467.706 183.26C466.417 183.744 455.142 201.286 453.209 205.321C451.276 209.355 445.459 254.459 449.415 265.089C453.37 275.72 474.149 285.063 483.331 273.948C492.512 262.834 479.303 214.832 476.968 212.496C474.633 210.16 478.176 200.979 476.888 194.617Z" fill="url(#paint13_linear_37_39496)"/>
<path d="M480.389 178.785C480.147 179.228 481.921 182.979 483.774 183.22C485.626 183.462 489.371 180.804 490.177 179.193C490.982 177.583 488.817 175.62 488.168 175.474C487.519 175.327 480.627 178.348 480.389 178.785Z" fill="#FFDBCC"/>
<path d="M574.34 227.537C571.25 229.914 571.199 236.598 573.374 238.833C575.548 241.068 581.951 240.041 583.28 237.081C584.609 234.121 583.401 228.745 580.864 227.537C578.327 226.329 575.911 226.329 574.34 227.537Z" fill="#F07B5C"/>
<path d="M578.569 202.227C577.846 212.284 580.524 220.357 578.992 225.785C578.365 228.006 574.582 229.893 571.381 228.383C568.18 226.872 568.059 215.758 573.072 206.456C578.086 197.153 578.569 202.227 578.569 202.227Z" fill="url(#paint14_linear_37_39496)"/>
<path d="M572.991 185.193C572.991 185.193 579.536 190.871 580.381 193.952C581.227 197.033 578.187 204.819 574.401 208.57C570.615 212.321 567.065 208.602 566.046 206.356C565.428 204.995 566.005 196.066 573.133 188.516C572.529 186.885 572.991 185.193 572.991 185.193Z" fill="url(#paint15_linear_37_39496)"/>
<path d="M570.815 198.078C569.348 199.653 568.25 203.589 569.949 204.932C572.336 206.818 574.923 208.431 577.52 202.39C575.466 199.068 571.963 196.847 570.815 198.078Z" fill="#FFDBCC"/>
<path d="M575.611 216.523C574.44 219.389 572.981 221.053 573.602 221.899C574.222 222.745 576.82 224.799 577.484 225.946C578.148 227.094 579.471 224.489 578.9 219.358C578.33 214.227 575.885 215.853 575.611 216.523Z" fill="#FFDBCC"/>
<path d="M580.524 229.168C578.573 229.003 577.12 229.228 577.422 229.832C577.724 230.437 579.095 234.967 578.953 236.356C578.811 237.746 581.569 236.584 582.677 235.813C583.784 235.041 582.66 229.349 580.524 229.168Z" fill="#FFDBCC"/>
<path d="M727.178 177.537C727.178 177.537 713.781 174.144 713.137 202.91C703.477 219.414 704.908 233.609 704.908 233.609L717.604 224.015L727.178 177.537Z" fill="#EAE2D8"/>
<path d="M725.473 250.523C725.853 245.44 727.406 214.385 730.306 202.809C733.205 191.234 736.467 184.649 736.709 182.746C736.95 180.844 731.634 174.562 723.903 180.482C716.171 186.401 713.513 203.315 713.513 203.315C713.513 203.315 705.177 221.126 705.298 225.57C690.204 245.84 683.311 262.511 687.177 269.76C691.043 277.009 723.934 271.127 725.473 250.523Z" fill="url(#paint16_linear_37_39496)"/>
<path d="M732.077 179.866C729.877 179.875 724.789 184.952 725.111 186.321C725.434 187.69 733.312 192.543 733.561 191.823C733.81 191.102 736.725 184.257 736.717 183.502C736.709 182.746 735.058 179.854 732.077 179.866Z" fill="#FFDBCC"/>
<path d="M577.545 319.021C575.683 319.021 574.011 318.387 572.831 317.206C571.451 315.824 570.886 313.823 571.238 311.57C571.589 309.323 572.721 307.685 574.51 306.832C576.196 306.029 578.064 306.116 579.028 306.239C580.296 306.402 581.58 306.933 582.55 307.696C583.814 308.691 584.506 310.018 584.552 311.535C584.677 315.648 582.607 318.338 578.874 318.917C578.424 318.986 577.98 319.021 577.545 319.021ZM577.658 307.865C574.12 307.865 573.176 310.29 572.935 311.835C572.666 313.557 573.05 314.994 574.046 315.992C575.109 317.057 576.773 317.505 578.612 317.219C582.227 316.659 582.904 313.847 582.836 311.587C582.766 309.283 580.39 308.146 578.809 307.943C578.398 307.89 578.014 307.865 577.658 307.865Z" fill="#7F555E"/>
<path d="M70.6993 276.69C69.5613 276.69 68.5349 276.298 67.8056 275.567C66.9497 274.71 66.5968 273.48 66.8121 272.102C67.2524 269.286 69.5606 268.558 71.5732 268.816C73.8541 269.108 74.9387 270.739 74.9807 272.13C75.0567 274.633 73.7871 276.273 71.4978 276.627C71.2274 276.669 70.9603 276.69 70.6993 276.69ZM70.7793 270.481C69.7779 270.481 68.7436 270.867 68.5089 272.368C68.3786 273.201 68.5555 273.888 69.0207 274.354C69.5256 274.86 70.333 275.07 71.2346 274.93C73.3372 274.604 73.282 272.781 73.264 272.182C73.2285 271.015 71.8735 270.586 71.3544 270.52C71.1683 270.496 70.9743 270.481 70.7793 270.481Z" fill="#7F555E"/>
<path d="M592.658 298.602C591.52 298.602 590.493 298.211 589.764 297.48C588.908 296.623 588.555 295.392 588.771 294.015C589.211 291.198 591.518 290.471 593.531 290.729C595.813 291.021 596.897 292.651 596.939 294.043C597.015 296.546 595.745 298.185 593.456 298.54C593.186 298.582 592.918 298.602 592.658 298.602ZM592.738 292.394C591.736 292.394 590.702 292.78 590.467 294.28C590.337 295.114 590.514 295.801 590.979 296.267C591.484 296.772 592.291 296.982 593.193 296.843C595.296 296.517 595.241 294.694 595.223 294.095C595.187 292.927 593.832 292.499 593.313 292.432C593.126 292.408 592.933 292.394 592.738 292.394Z" fill="#7F555E"/>
<path d="M39.9166 228.746C37.7216 228.746 35.5523 228.238 33.857 227.692C30.8172 226.713 27.6346 225.081 25.3434 223.326C22.6149 221.236 21.8146 217.604 23.3525 214.287C24.2095 212.438 25.7013 210.909 27.5531 209.981C29.4347 209.039 31.6201 208.741 33.9115 209.106C37.6001 200.234 41.4739 199.859 43.4817 200.447C48.4238 201.895 51.1424 211.441 49.2997 220.876C48.5809 224.556 46.7321 226.984 43.8044 228.093C42.5642 228.562 41.2356 228.746 39.9166 228.746ZM32.0016 210.665C28.301 210.665 25.9102 212.853 24.9104 215.009C23.7003 217.619 24.2801 220.348 26.3876 221.963C28.5313 223.604 31.5205 225.135 34.3834 226.057C36.8365 226.847 40.3567 227.563 43.196 226.487C45.5306 225.602 47.017 223.604 47.614 220.547C49.393 211.438 46.5939 203.148 42.9987 202.095C40.454 201.35 37.6265 204.375 35.2412 210.396C35.0864 210.787 34.6713 211.01 34.2599 210.919C33.4603 210.745 32.707 210.665 32.0016 210.665Z" fill="#7F555E"/>
<path d="M357.568 350.218C357.55 350.218 357.532 350.218 357.514 350.217C357.407 350.21 346.724 349.077 346.54 345.695C346.403 343.184 349.668 338.364 352.07 336.014C352.409 335.683 352.952 335.688 353.284 336.027C353.616 336.366 353.61 336.91 353.271 337.242C350.473 339.979 348.174 344.127 348.255 345.602C348.256 345.609 348.522 346.445 352.14 347.453C354.451 348.097 356.85 348.454 357.621 348.502C358.094 348.532 358.454 348.94 358.425 349.413C358.396 349.868 358.018 350.218 357.568 350.218Z" fill="#7F555E"/>
<path d="M367.742 346.891C367.724 346.891 367.706 346.89 367.688 346.889C367.58 346.883 356.898 345.749 356.713 342.368C356.576 339.856 359.842 335.037 362.243 332.687C362.582 332.355 363.126 332.361 363.458 332.7C363.789 333.039 363.783 333.583 363.444 333.914C360.647 336.652 358.348 340.799 358.428 342.274C358.429 342.282 358.696 343.118 362.314 344.126C364.625 344.77 367.024 345.127 367.794 345.175C368.268 345.205 368.628 345.612 368.598 346.085C368.569 346.541 368.191 346.891 367.742 346.891Z" fill="#7F555E"/>
<path d="M346.901 356.949C345.828 356.949 344.961 355.871 344.657 355.493C341.976 352.159 338.03 341.435 339.36 338.523C339.642 337.907 340.163 337.54 340.79 337.517C341.263 337.497 341.658 337.869 341.677 338.342C341.695 338.79 341.362 339.172 340.924 339.228C340.808 339.455 340.657 340.323 341.049 342.345C341.389 344.103 342.036 346.252 342.871 348.398C344.79 353.328 346.428 355.142 346.899 355.23C347.354 355.144 347.797 355.437 347.895 355.893C347.995 356.356 347.7 356.813 347.237 356.913C347.123 356.938 347.011 356.949 346.901 356.949Z" fill="#7F555E"/>
<path d="M409.647 41.4792C409.331 41.4792 409.027 41.3043 408.877 41.002C408.666 40.5774 408.84 40.0619 409.265 39.8511C409.32 39.8236 414.826 37.0749 417.59 34.3441C417.928 34.0109 418.472 34.0141 418.805 34.3516C419.138 34.6888 419.135 35.2326 418.797 35.566C415.835 38.492 410.264 41.2727 410.028 41.3897C409.905 41.4504 409.775 41.4792 409.647 41.4792Z" fill="#7F555E"/>
<path d="M412.76 48.4209C412.354 48.4209 411.994 48.1328 411.917 47.7198C411.829 47.2537 412.137 46.805 412.603 46.7179C412.681 46.7033 420.435 45.2246 424.078 42.1283C424.439 41.8211 424.981 41.8651 425.288 42.2264C425.595 42.588 425.551 43.1298 425.19 43.437C421.198 46.8304 413.254 48.3434 412.918 48.4063C412.865 48.4162 412.812 48.4209 412.76 48.4209Z" fill="#7F555E"/>
<path d="M321.282 90.9785C320.896 90.9785 320.546 90.7166 320.449 90.3253C320.335 89.8648 320.617 89.3994 321.077 89.2858C323.849 88.6023 330.51 85.4597 330.577 85.4279C331.006 85.225 331.518 85.4084 331.721 85.8371C331.923 86.2658 331.74 86.7778 331.312 86.9804C331.032 87.1127 324.425 90.2287 321.488 90.9532C321.42 90.9704 321.35 90.9785 321.282 90.9785Z" fill="#7F555E"/>
<path d="M308.772 79.7527C305.921 79.7527 303.081 79.5924 300.525 79.1729C300.057 79.096 299.74 78.6544 299.817 78.1865C299.894 77.7185 300.336 77.4016 300.804 77.4782C311.164 79.1789 326.97 76.3913 327.129 76.3632C327.596 76.2806 328.042 76.5903 328.125 77.0573C328.209 77.5242 327.898 77.9703 327.431 78.0538C326.93 78.1433 317.8 79.7527 308.772 79.7527Z" fill="#7F555E"/>
</g>
<defs>
<filter id="filter0_d_37_39496" x="0.578613" y="0" width="867.642" height="436" filterUnits="userSpaceOnUse" color-interpolation-filters="sRGB">
<feFlood flood-opacity="0" result="BackgroundImageFix"/>
<feColorMatrix in="SourceAlpha" type="matrix" values="0 0 0 0 0 0 0 0 0 0 0 0 0 0 0 0 0 0 127 0" result="hardAlpha"/>
<feOffset dy="4"/>
<feGaussianBlur stdDeviation="11"/>
<feComposite in2="hardAlpha" operator="out"/>
<feColorMatrix type="matrix" values="0 0 0 0 0.803922 0 0 0 0 0.0117647 0 0 0 0 0.411765 0 0 0 0.56 0"/>
<feBlend mode="normal" in2="BackgroundImageFix" result="effect1_dropShadow_37_39496"/>
<feBlend mode="normal" in="SourceGraphic" in2="effect1_dropShadow_37_39496" result="shape"/>
</filter>
<linearGradient id="paint0_linear_37_39496" x1="590.53" y1="159.691" x2="569.278" y2="176.113" gradientUnits="userSpaceOnUse">
<stop stop-color="#FFA07A"/>
<stop offset="1" stop-color="#F07B5C"/>
</linearGradient>
<linearGradient id="paint1_linear_37_39496" x1="208.898" y1="205.663" x2="182.173" y2="210.171" gradientUnits="userSpaceOnUse">
<stop stop-color="#FFA07A"/>
<stop offset="1" stop-color="#F07B5C"/>
</linearGradient>
<linearGradient id="paint2_linear_37_39496" x1="629.546" y1="167.149" x2="658.303" y2="167.149" gradientUnits="userSpaceOnUse">
<stop stop-color="#FFA07A"/>
<stop offset="1" stop-color="#F07B5C"/>
</linearGradient>
<linearGradient id="paint3_linear_37_39496" x1="636.41" y1="252.343" x2="643.566" y2="243.327" gradientUnits="userSpaceOnUse">
<stop stop-color="#FFA07A"/>
<stop offset="1" stop-color="#F07B5C"/>
</linearGradient>
<linearGradient id="paint4_linear_37_39496" x1="633.849" y1="233.889" x2="645.727" y2="226.59" gradientUnits="userSpaceOnUse">
<stop stop-color="#FFA07A"/>
<stop offset="1" stop-color="#F07B5C"/>
</linearGradient>
<linearGradient id="paint5_linear_37_39496" x1="633.076" y1="209.106" x2="648.962" y2="202.522" gradientUnits="userSpaceOnUse">
<stop stop-color="#FFA07A"/>
<stop offset="1" stop-color="#F07B5C"/>
</linearGradient>
<linearGradient id="paint6_linear_37_39496" x1="199.948" y1="259.28" x2="193.937" y2="247.402" gradientUnits="userSpaceOnUse">
<stop stop-color="#FFA07A"/>
<stop offset="1" stop-color="#F07B5C"/>
</linearGradient>
<linearGradient id="paint7_linear_37_39496" x1="144.857" y1="199.316" x2="121.029" y2="281.103" gradientUnits="userSpaceOnUse">
<stop stop-color="#FFA07A"/>
<stop offset="1" stop-color="#F07B5C"/>
</linearGradient>
<linearGradient id="paint8_linear_37_39496" x1="360.857" y1="197.131" x2="385.76" y2="149.044" gradientUnits="userSpaceOnUse">
<stop stop-color="#99AC5F"/>
<stop offset="1" stop-color="#BBD08C"/>
</linearGradient>
<linearGradient id="paint9_linear_37_39496" x1="347.522" y1="146.348" x2="308.56" y2="158.584" gradientUnits="userSpaceOnUse">
<stop stop-color="#FFA07A"/>
<stop offset="1" stop-color="#F07B5C"/>
</linearGradient>
<linearGradient id="paint10_linear_37_39496" x1="360.154" y1="230.603" x2="274.377" y2="273.062" gradientUnits="userSpaceOnUse">
<stop stop-color="#FFA07A"/>
<stop offset="1" stop-color="#F07B5C"/>
</linearGradient>
<linearGradient id="paint11_linear_37_39496" x1="353.717" y1="237.381" x2="320.228" y2="249.832" gradientUnits="userSpaceOnUse">
<stop stop-color="#FFA07A"/>
<stop offset="1" stop-color="#F07B5C"/>
</linearGradient>
<linearGradient id="paint12_linear_37_39496" x1="196.848" y1="246.315" x2="190.694" y2="227.566" gradientUnits="userSpaceOnUse">
<stop stop-color="#FFA07A"/>
<stop offset="1" stop-color="#F07B5C"/>
</linearGradient>
<linearGradient id="paint13_linear_37_39496" x1="475.174" y1="175.614" x2="466.158" y2="263.841" gradientUnits="userSpaceOnUse">
<stop stop-color="#FFA07A"/>
<stop offset="1" stop-color="#F07B5C"/>
</linearGradient>
<linearGradient id="paint14_linear_37_39496" x1="579.294" y1="228.675" x2="572.175" y2="208.444" gradientUnits="userSpaceOnUse">
<stop stop-color="#FFA07A"/>
<stop offset="1" stop-color="#F07B5C"/>
</linearGradient>
<linearGradient id="paint15_linear_37_39496" x1="575.068" y1="203.233" x2="568.846" y2="192.507" gradientUnits="userSpaceOnUse">
<stop stop-color="#FFA07A"/>
<stop offset="1" stop-color="#F07B5C"/>
</linearGradient>
<linearGradient id="paint16_linear_37_39496" x1="712.354" y1="183.654" x2="710.78" y2="250.919" gradientUnits="userSpaceOnUse">
<stop stop-color="#FFA07A"/>
<stop offset="1" stop-color="#F07B5C"/>
</linearGradient>
</defs>
</svg>
