<svg width="188" height="188" viewBox="0 0 188 188" fill="none" xmlns="http://www.w3.org/2000/svg">
<path d="M112.862 168.654C154.092 158.237 179.072 116.368 168.654 75.1381C158.237 33.9078 116.369 8.92883 75.1384 19.346C33.9081 29.7631 8.92912 71.6316 19.3462 112.862C29.7634 154.092 71.6319 179.071 112.862 168.654Z" fill="#FFDA24"/>
<path d="M168.654 75.1381C179.071 116.367 154.091 158.237 112.862 168.654C71.6332 179.071 29.7629 154.091 19.3461 112.862C18.5983 109.902 18.0328 106.939 17.6432 103.985C31.3486 139.996 70.1723 160.826 108.441 151.157C146.71 141.488 170.981 104.717 165.936 66.5178C166.997 69.3026 167.906 72.1782 168.654 75.1381Z" fill="#FFC024"/>
<path d="M63.0163 93.8834L121.214 79.1792C125.676 78.052 130.213 80.7587 131.34 85.2205L131.376 85.3634C136.541 105.806 124.139 126.595 103.696 131.76L103.553 131.796C83.0321 136.981 62.1627 124.53 56.9779 104.009C55.8506 99.5469 58.5574 95.01 63.0192 93.8827L63.0163 93.8834Z" fill="#473535"/>
<path d="M124.54 118.117C119.493 124.638 112.311 129.583 103.693 131.76L103.55 131.797C94.8922 133.984 86.1811 133.039 78.6077 129.673C82.0199 121.334 89.2137 114.664 98.6212 112.287C108.029 109.91 117.57 112.371 124.54 118.117Z" fill="#FF7E27"/>
<path d="M125.528 79.2436L126.071 81.3928C127.424 86.7469 124.179 92.1891 118.822 93.5426L71.9417 105.387C66.5847 106.741 61.1447 103.493 59.792 98.1387L59.2489 95.9894C60.2649 95.0006 61.5447 94.2584 63.0174 93.8863L121.216 79.1822C122.685 78.8108 124.167 78.8553 125.531 79.2429L125.528 79.2436Z" fill="white"/>
<path d="M100.409 65.437C99.4906 65.6691 98.5006 65.6556 97.5296 65.3487C94.7575 64.47 93.2269 61.5062 94.1026 58.7348C94.555 57.3082 98.805 44.7217 108.746 42.21C118.688 39.6982 128.406 48.7555 129.482 49.796C131.572 51.8181 131.625 55.1489 129.603 57.2389C127.583 59.3252 124.26 59.3831 122.172 57.3698C120.094 55.382 114.71 51.5582 111.327 52.4129C107.944 53.2676 105.023 59.1897 104.138 61.9261C103.567 63.7272 102.118 65.0053 100.412 65.4363L100.409 65.437Z" fill="#473535"/>
<path d="M48.0869 78.6566C47.1683 78.8887 46.1783 78.8751 45.2073 78.5682C42.4352 77.6895 40.9046 74.7257 41.7804 71.9543C42.2328 70.5278 46.4828 57.9412 56.424 55.4295C66.3652 52.9178 76.0837 61.9751 77.1594 63.0156C79.2494 65.0377 79.3029 68.3684 77.2809 70.4584C75.2588 72.5484 71.928 72.6019 69.838 70.5799C67.7723 68.6044 62.3884 64.7807 59.0057 65.6354C55.6229 66.4901 52.7015 72.4122 51.8169 75.1486C51.245 76.9497 49.7965 78.2277 48.0906 78.6588L48.0869 78.6566Z" fill="#473535"/>
</svg>
