<svg width="9" height="9" viewBox="0 0 9 9" fill="none" xmlns="http://www.w3.org/2000/svg">
<path d="M0.444358 5.0622C0.345412 4.96043 0.222106 4.88684 0.127635 4.77907C-0.0434079 4.584 -0.0431579 4.4251 0.132111 4.23377C0.241001 4.11503 0.374749 4.02599 0.494827 3.92072C0.516207 3.90201 0.539337 3.88529 0.560469 3.86658C0.798387 3.6548 0.833185 3.5161 0.724544 3.21302C0.669352 3.05911 0.613169 2.90544 0.558724 2.75128C0.513228 2.62207 0.509991 2.49335 0.571895 2.36763C0.592281 2.3594 0.606714 2.34518 0.61467 2.32447C0.80212 2.1985 1.02386 2.19426 1.23419 2.14886C1.25358 2.14586 1.27323 2.14312 1.29262 2.14038C1.51239 2.1067 1.72271 2.05781 1.79331 1.80312C1.81693 1.71781 1.83508 1.631 1.85099 1.54369C1.87858 1.39027 1.8858 1.23187 1.94223 1.08544C1.97778 0.993645 1.99717 0.884139 2.10979 0.843978C2.1185 0.83824 2.1272 0.832503 2.13615 0.826765C2.14137 0.827514 2.14634 0.826518 2.15107 0.823774C2.27537 0.812049 2.3947 0.838491 2.51378 0.868924C2.66568 0.936526 2.81982 0.99939 2.97992 1.04454C3.2616 1.12412 3.41375 1.06774 3.58181 0.826019L3.5838 0.82452C3.58951 0.817784 3.59548 0.811051 3.6012 0.804316C3.67355 0.716259 3.74415 0.627203 3.81823 0.540644C4.1014 0.21037 4.30152 0.210867 4.58245 0.539395C4.69109 0.666366 4.78855 0.802068 4.90415 0.923301C5.04088 1.06674 5.19676 1.11139 5.38769 1.05352C5.54382 1.00612 5.692 0.938521 5.84514 0.883891C6.20736 0.755174 6.35528 0.806811 6.47138 1.10441C6.47536 1.11264 6.47933 1.12087 6.48331 1.1291C6.49275 1.17799 6.50196 1.22664 6.51141 1.27553C6.50867 1.29948 6.50692 1.32318 6.52607 1.34213C6.53999 1.51201 6.5646 1.67989 6.62178 1.84153C6.66181 1.95503 6.73689 2.03312 6.8505 2.07552C7.01433 2.13664 7.18488 2.16133 7.35791 2.1748C7.37606 2.19451 7.39894 2.19351 7.42255 2.18977C7.55009 2.21746 7.67515 2.25238 7.78677 2.32398C7.93718 2.49585 7.8693 2.6782 7.80964 2.85805C7.75818 3.01321 7.69751 3.16537 7.64555 3.32028C7.58364 3.50413 7.62841 3.65929 7.76738 3.79674C7.91431 3.94217 8.08981 4.05292 8.23525 4.2001C8.45875 4.42635 8.46224 4.59897 8.23153 4.81998C8.11121 4.93523 7.97546 5.03376 7.84967 5.14352C7.6018 5.3598 7.56775 5.49475 7.67738 5.80382C7.73332 5.96147 7.79125 6.11838 7.84569 6.27654C7.88895 6.40251 7.89044 6.52823 7.82953 6.65046C7.71517 6.75673 7.57346 6.79814 7.42454 6.82383C7.27065 6.85028 7.11677 6.87697 6.96338 6.9064C6.75057 6.94706 6.63371 7.07802 6.58573 7.28955C6.5385 7.49809 6.52508 7.71238 6.4669 7.91917C6.39879 8.16014 6.1912 8.27564 5.93289 8.16388C5.74818 8.08406 5.55798 8.01172 5.36208 7.95858C5.19104 7.91194 5.04835 7.9516 4.9233 8.07508C4.799 8.19806 4.69906 8.34149 4.58594 8.47395C4.2983 8.80996 4.10786 8.80971 3.8155 8.47345C3.6989 8.33925 3.59945 8.19083 3.46967 8.06785C3.36874 7.97231 3.25339 7.91642 3.11194 7.94436C2.98639 7.96906 2.86332 8.00398 2.74896 8.0641C2.67363 8.07757 2.60378 8.10626 2.53591 8.14069C2.38077 8.17885 2.2259 8.23672 2.06878 8.14792C1.99271 8.06485 1.94397 7.96732 1.92358 7.85681C1.89623 7.71038 1.87858 7.56171 1.84601 7.41628C1.81096 7.26037 1.80077 7.0885 1.63942 6.99346L1.63968 6.99371C1.53079 6.90216 1.39429 6.89118 1.26328 6.86674C1.07906 6.83231 0.889623 6.82158 0.715348 6.74351C0.579608 6.68264 0.521927 6.5891 0.528391 6.44067C0.532618 6.34713 0.560964 6.25907 0.592288 6.17202C0.635546 6.05178 0.681045 5.93229 0.723557 5.81156C0.84637 5.45983 0.769787 5.25478 0.444358 5.0622ZM6.14247 3.58046C6.14048 3.52633 6.11985 3.4717 6.07386 3.42655C6.01046 3.36419 5.94781 3.30083 5.88541 3.23747C5.70418 3.05287 5.6194 3.05362 5.43469 3.23971C4.88153 3.79724 4.32737 4.35376 3.77596 4.91328C3.71903 4.9709 3.68721 4.97465 3.62953 4.91278C3.49379 4.7671 3.35011 4.62866 3.20765 4.48947C3.08882 4.37347 2.97072 4.37422 2.85337 4.48847C2.78202 4.55807 2.71142 4.62865 2.64156 4.6995C2.51552 4.82747 2.51403 4.94471 2.63859 5.07018C2.93145 5.36528 3.22479 5.66039 3.5189 5.95424C3.65116 6.08645 3.76155 6.08371 3.89456 5.949C4.11706 5.724 4.33931 5.49874 4.56181 5.27399C5.0548 4.77633 5.54754 4.27868 6.04128 3.78202C6.09547 3.72764 6.14123 3.67101 6.14247 3.58046Z" fill="#20A1F0"/>
</svg>
