<svg width="41" height="41" viewBox="0 0 41 41" fill="none" xmlns="http://www.w3.org/2000/svg">
<path d="M20.505 0.5H20.495C9.4675 0.5 0.5 9.47 0.5 20.5C0.5 24.875 1.91 28.93 4.3075 32.2225L1.815 39.6525L9.5025 37.195C12.665 39.29 16.4375 40.5 20.505 40.5C31.5325 40.5 40.5 31.5275 40.5 20.5C40.5 9.4725 31.5325 0.5 20.505 0.5ZM32.1425 28.7425C31.66 30.105 29.745 31.235 28.2175 31.565C27.1725 31.7875 25.8075 31.965 21.2125 30.06C15.335 27.625 11.55 21.6525 11.255 21.265C10.9725 20.8775 8.88 18.1025 8.88 15.2325C8.88 12.3625 10.3375 10.965 10.925 10.365C11.4075 9.8725 12.205 9.6475 12.97 9.6475C13.2175 9.6475 13.44 9.66 13.64 9.67C14.2275 9.695 14.5225 9.73 14.91 10.6575C15.3925 11.82 16.5675 14.69 16.7075 14.985C16.85 15.28 16.9925 15.68 16.7925 16.0675C16.605 16.4675 16.44 16.645 16.145 16.985C15.85 17.325 15.57 17.585 15.275 17.95C15.005 18.2675 14.7 18.6075 15.04 19.195C15.38 19.77 16.555 21.6875 18.285 23.2275C20.5175 25.215 22.3275 25.85 22.975 26.12C23.4575 26.32 24.0325 26.2725 24.385 25.8975C24.8325 25.415 25.385 24.615 25.9475 23.8275C26.3475 23.2625 26.8525 23.1925 27.3825 23.3925C27.9225 23.58 30.78 24.9925 31.3675 25.285C31.955 25.58 32.3425 25.72 32.485 25.9675C32.625 26.215 32.625 27.3775 32.1425 28.7425Z" fill="black"/>
</svg>
